<svg width="581" height="834" viewBox="0 0 581 834" fill="none" xmlns="http://www.w3.org/2000/svg">
<g filter="url(#filter0_dd_634_21836)">
<g clip-path="url(#clip0_634_21836)">
<rect x="16" y="8" width="549" height="802" rx="6" fill="#081B32"/>
<g opacity="0.1">
<path d="M383.921 531.08C384.885 538.313 408.863 640.636 421.319 692.674H429.155C417.1 635.814 396.053 542.728 393.357 531.08C390.661 519.431 382.308 518.983 383.921 531.08Z" fill="#4CD0FB"/>
<path d="M464.124 787.145L460.199 783.957C457.059 796.714 461.508 808.898 464.124 813.396C456.274 810.861 439.003 807.312 432.723 813.396C426.442 819.48 430.106 823.127 432.723 824.19C447.246 814.77 464.124 817.812 470.748 820.51C463.29 808.538 463.225 793.279 464.124 787.145Z" fill="#CD5F27"/>
<path d="M541.819 793.322L545.744 784.872C553.407 816.448 544.435 809.813 541.819 814.311C549.669 811.776 560.952 808.227 567.232 814.311C573.513 820.395 569.849 824.937 567.233 826C552.709 816.58 541.429 817.018 534.805 819.716C545.354 806.193 542.718 799.455 541.819 793.322Z" fill="#CD5F27"/>
<path d="M456.724 776.485C456.982 773.643 459.846 769.703 461.245 768.088L567.826 737.083L596.57 729.655L602.06 754.846L551.031 774.871V790.696L539.727 795.218C532.751 792.117 528.854 784.667 527.777 781.33C512.705 782.622 480.107 785.27 470.289 785.529C458.016 785.852 456.401 780.038 456.724 776.485Z" fill="#F1CF58"/>
<path d="M464.686 770.043C457.594 770.326 449.911 767.088 446.957 765.433L441.638 708.697L448.73 701.96C445.302 698.65 439.652 690.684 444.474 685.294C450.503 678.556 446.957 679.975 446.957 673.237C446.957 667.847 453.812 664.372 457.24 663.309L481.707 706.57C483.835 707.988 494.474 708.237 499.215 701.96C524.391 668.628 534.897 659.053 543.762 652.671C550.854 647.564 554.045 648.652 554.755 649.834C555.7 653.262 560.144 661.394 570.357 666.5C583.122 672.883 574.967 677.138 574.967 682.457V692.031C572.981 709.619 560.665 718.981 554.755 721.463L570.357 736.356C568.088 741.178 560.901 750.185 557.591 754.086C544.542 768.837 524.496 773.707 516.103 774.298L528.869 797.701C530.642 799.593 531.777 803.162 522.132 802.311C510.075 801.247 516.458 795.574 500.856 797.701C488.374 799.403 478.634 796.992 475.325 795.574L464.686 770.043Z" fill="#BA9E28"/>
<path d="M563.861 730.954C545.687 747.37 519.401 757.092 508.531 759.901V752.939L555.8 721.793L563.861 730.954Z" fill="#404041"/>
<path d="M456.387 756.529L453.983 752.939L459.325 751.188L462.797 758.399L456.387 756.529Z" fill="#404041"/>
<path d="M435.194 754.598V748.354L425.107 711.85C423.826 709.769 420.592 705.125 417.903 703.204C415.213 701.283 419.023 698.241 421.265 696.96C417.102 696.96 410.602 696.192 417.903 693.117C425.204 690.043 429.911 689.275 431.352 689.275C446.722 693.117 431.352 694.078 437.596 696.96C442.591 699.266 439.677 703.684 437.596 705.606L452.486 752.197C454.567 752.997 457.481 755.751 452.486 760.362C447.49 764.973 438.877 764.205 435.194 763.244L431.352 754.598H435.194Z" fill="#C4C4C4"/>
<path d="M414.748 695.639L422.332 692.268H428.881C428.5 691.537 428.258 690.013 430.336 689.764C432.933 689.452 436.777 691.53 436.777 693.816C436.777 696.101 435.738 696.932 438.958 699.529C441.534 701.607 438.577 703.788 436.777 704.619C433.002 705.381 424.829 706.759 422.332 706.178C419.834 705.596 419.078 703.65 419.012 702.75L419.636 698.698L414.748 695.639Z" fill="#404041"/>
<path d="M436.777 764.068L432.843 754.29C443.409 755.551 451.125 752.082 453.662 750.189L455.87 758.706C451.328 766.276 441.248 765.435 436.777 764.068Z" fill="#404041"/>
<path d="M469.652 735.647C467.099 717.775 461.024 713.78 458.305 714.016C456.414 714.726 452.206 715.222 450.504 711.534C448.802 707.846 441.757 707.634 438.447 707.988L440.93 714.016C433.483 714.016 427.1 710.47 421.427 711.534C416.888 712.385 419.536 716.853 421.427 718.981C417.763 719.69 411.64 721.888 416.462 725.009C422.49 728.91 420.363 732.101 418.945 735.647C417.81 738.484 422.491 739.429 424.973 739.547C423.318 740.493 423.129 743.448 435.611 747.703C448.093 751.958 463.506 751.367 469.652 750.54V735.647Z" fill="#F1CF58"/>
<path d="M480.923 707.518C469.712 701.016 458.876 680.147 454.859 670.524L460.744 599.059C458.782 598.499 454.466 596.201 452.897 591.492C451.328 586.784 463.64 584.673 469.992 584.206C459.062 584.766 440.523 574.743 452.897 569.072C467.528 562.367 482.791 569.165 488.209 572.435C486.795 569.071 485.369 564.299 488.209 563.747C520.495 557.471 545.008 589.157 553.228 605.786C557.264 612.96 551.547 638.482 548.184 650.346C531.935 664.424 521.924 684.446 514.843 691.038C511.747 693.921 502.695 702.941 499.239 707.518H480.923Z" fill="#F1CF58"/>
<path d="M503.055 689.315L495.157 681.395C494.215 680.507 493.093 679.832 491.867 679.415C489.163 678.516 486.475 679.218 484.298 681.395L476.378 689.315C475.487 690.256 474.812 691.379 474.398 692.606C473.493 695.31 474.195 697.998 476.378 700.175L484.298 708.1C485.24 708.989 486.362 709.664 487.588 710.08C488.326 710.327 489.098 710.455 489.876 710.459C490.869 710.44 491.849 710.221 492.756 709.816C493.663 709.411 494.48 708.827 495.157 708.1L503.077 700.175C503.969 699.235 504.645 698.112 505.057 696.884C505.962 694.18 505.255 691.487 503.077 689.31L503.055 689.315ZM490.347 683.688C490.944 683.879 491.494 684.195 491.96 684.615L494.302 686.957L489.733 691.52L485.17 686.957L487.523 684.598C488.153 683.973 489.042 683.299 490.347 683.688ZM478.687 694.109C478.882 693.515 479.198 692.968 479.614 692.502L481.956 690.154L486.524 694.723L481.956 699.286L479.603 696.934C478.972 696.303 478.303 695.414 478.687 694.109ZM489.108 705.769C488.505 705.576 487.95 705.259 487.479 704.837L485.137 702.495L489.7 697.926L494.269 702.495L491.91 704.848C491.285 705.479 490.391 706.153 489.091 705.764L489.108 705.769ZM500.746 695.343C500.555 695.939 500.241 696.488 499.825 696.955L497.477 699.297L492.914 694.734L497.477 690.165L499.836 692.524C500.467 693.155 501.136 694.043 500.746 695.343Z" fill="#00ACE4"/>
<path fill-rule="evenodd" clip-rule="evenodd" d="M473.052 655.728C483.241 657.802 489.519 656.677 502.789 651.582C498.346 659.994 495.344 664.425 489.064 670.883C480.77 665.906 477.495 662.6 473.052 655.728Z" fill="#DC6126"/>
<path fill-rule="evenodd" clip-rule="evenodd" d="M502.217 652.44C488.921 660.875 483.872 660.577 473.623 658.444C471.076 657.97 467.987 654.734 465.617 653.726C473.623 647.436 478.166 643.074 487.348 638.572C491.021 643.667 493.982 647.226 502.217 652.44Z" fill="#F17727"/>
<path d="M478.495 597.327C460.705 609.681 438.606 585.299 468.006 584.631C470.971 584.563 481.333 583.298 478.495 582.438C468.006 587.23 450.203 581.246 449.47 573.43C449.07 569.162 459.364 566.865 466.515 566.865C482.431 568.063 490.304 573.43 487.736 573.43C485.394 573.43 484.413 565.64 490.646 562.756C512.744 557.02 547.636 586.775 553.454 605.542C555.936 613.547 552.743 635.239 548.608 648.471" stroke="black" stroke-width="1.66484" stroke-linecap="round"/>
<path d="M466.413 653.625C471.597 658.55 478.488 660.58 485.53 659.846C492.9 659.078 500.952 655.349 505.443 649.301" stroke="black" stroke-width="1.66484" stroke-linecap="round"/>
<path d="M465.514 654.064C471.689 648.655 481.452 642.522 488.34 638.09" stroke="black" stroke-width="1.66484" stroke-linecap="round"/>
<path d="M487.603 639.159C489.83 642.382 492.336 645.322 495.39 647.807C497.658 649.654 500.276 650.983 502.758 652.507" stroke="black" stroke-width="1.66484" stroke-linecap="round"/>
<path d="M474.564 658.631C478.822 663.64 482.631 667.638 488.675 670.17" stroke="black" stroke-width="1.66484" stroke-linecap="round"/>
<path d="M488.341 672.031C493.004 667.509 498.32 658.688 501.549 652.569" stroke="black" stroke-width="1.66484" stroke-linecap="round"/>
<path d="M459.894 600.084C459.894 600.084 456.863 651.63 455.863 670.699" stroke="black" stroke-width="1.66484" stroke-linecap="round"/>
<path d="M472.007 639.458C460.253 641.857 455.633 629.447 455.233 624.05L469.676 622.361L483.82 624.05C483.82 634.64 475.406 639.358 472.007 639.458Z" fill="white"/>
<path d="M467.777 622.99C465.391 631.445 479.05 631.553 475.473 622.99H467.777Z" fill="#030405" stroke="#030405" stroke-width="1.66484" stroke-linecap="round"/>
<path d="M454.763 623.925C458.756 622.541 463.119 622.585 467.294 622.48C472.073 622.36 479.697 623.138 484.422 623.926" stroke="black" stroke-width="1.66484" stroke-linecap="round"/>
<path d="M454.587 625.123C454.797 631.943 461.198 638.813 467.803 639.917C472.099 640.634 476.948 639.162 479.973 636.009C481.434 634.486 482.609 632.635 483.434 630.694C484.367 628.497 484.368 626.415 484.536 624.096" stroke="black" stroke-width="1.66484" stroke-linecap="round"/>
<path d="M510.794 639.361C499.039 641.76 495.301 631.564 494.901 626.167L523.388 623.768C523.388 635.763 514.192 639.261 510.794 639.361Z" fill="white"/>
<path d="M506.819 626.042C504.433 634.497 518.092 634.606 514.515 626.042H506.819Z" fill="#030405" stroke="#030405" stroke-width="1.66484" stroke-linecap="round"/>
<path d="M494.328 625.215C495.737 649.389 525.982 641.367 522.622 624.563" stroke="black" stroke-width="1.66484" stroke-linecap="round"/>
<path d="M493.701 624.674C503.611 624.674 513.394 624.713 523.308 624.332" stroke="black" stroke-width="1.66484" stroke-linecap="round"/>
<path d="M459.193 770.303C457.36 777.002 454.537 780.819 461.519 784.83C464.334 786.446 467.626 787.276 470.623 785.98" stroke="black" stroke-width="1.66484" stroke-linecap="round"/>
<path d="M463.729 785.982C463.729 785.982 463.479 809.136 470.786 821.01" stroke="black" stroke-width="1.66484" stroke-linecap="round"/>
<path d="M459.469 783.697C459.469 783.697 457.194 803.496 463.991 813.952" stroke="black" stroke-width="1.66484" stroke-linecap="round"/>
<path d="M432.1 813.604C443.078 807.941 453.907 810.242 463.99 813.603" stroke="black" stroke-width="1.66484" stroke-linecap="round"/>
<path d="M531.133 780.781C526.866 781.729 522.778 782.409 518.722 782.672" stroke="black" stroke-width="1.66484" stroke-linecap="round"/>
<path d="M527.198 781.837C529.495 786.49 531.793 792.275 539.197 795.619" stroke="black" stroke-width="1.66484" stroke-linecap="round"/>
<path d="M550.691 774.811C550.691 779.221 550.066 787.232 550.691 791.609" stroke="black" stroke-width="1.66484" stroke-linecap="round"/>
<path d="M544.69 777.707C565.468 768.631 585.91 760.233 606.917 752.494" stroke="black" stroke-width="1.66484" stroke-linecap="round"/>
<path d="M538.816 795.799C544.722 794.549 548.59 792.661 552.785 788.465" stroke="black" stroke-width="1.66484" stroke-linecap="round"/>
<path d="M542.657 795.096L543.752 804.361C543.752 808.453 540.85 813.791 533.606 820.019" stroke="black" stroke-width="1.66484" stroke-linecap="round"/>
<path d="M548.023 792.977C548.023 799.204 550.692 807.745 546.777 810.592L541.439 816.997" stroke="black" stroke-width="1.66484" stroke-linecap="round"/>
<path d="M456.066 714.956C468.808 708.238 470.404 747.821 470.404 751.681C471.659 760.843 465.441 756.92 464.062 751.681" stroke="black" stroke-width="1.66484" stroke-linecap="round"/>
<path d="M457.723 750.968C460.587 754.512 463.086 758.649 466.802 761.351C489.391 769.566 546.095 731.327 564.552 713.708" stroke="black" stroke-width="1.66484" stroke-linecap="round"/>
<path d="M456.317 714.706C455.908 714.384 454.503 713.421 455.023 712.702C455.528 712.004 457.005 711.756 457.736 711.561C460.558 710.811 463.462 710.462 466.364 710.197C477.328 709.197 488.319 708.485 499.287 707.498C507.992 706.715 516.718 706.095 525.447 705.689" stroke="black" stroke-width="1.66484" stroke-linecap="round"/>
<path d="M502.655 707.442C503.493 707.559 504.017 707.535 504.77 707.136C507.012 705.949 509.42 705.115 511.825 704.325C517.948 702.313 524.282 701.012 530.458 699.176" stroke="black" stroke-width="1.66484" stroke-linecap="round"/>
<path d="M513.693 703.429C533.546 687.988 551.931 677.053 563.6 675.58" stroke="black" stroke-width="1.66484" stroke-linecap="round"/>
<path d="M496.286 708.131C518.506 696.166 529.3 663.172 550.243 649.083" stroke="black" stroke-width="1.66484" stroke-linecap="round"/>
<path d="M549.491 649.584C554.224 647.18 556.815 653.382 559.463 656.831C569.55 669.968 581.797 668.136 574.628 682.198" stroke="black" stroke-width="1.66484" stroke-linecap="round"/>
<path d="M563.267 675.382C571.16 673.928 575.529 681.886 575.512 688.88C575.493 696.405 571.474 704.03 567.163 709.975C563.968 714.381 559.994 718.061 556.003 721.719" stroke="black" stroke-width="1.66484" stroke-linecap="round"/>
<path d="M454.137 667.859C461.581 688.815 469.302 696.535 481.434 708.667" stroke="black" stroke-width="1.66484" stroke-linecap="round"/>
<path d="M455.24 664C452.214 663.739 448.975 667.669 447.955 670.066C446.155 674.292 450.883 677.594 447.955 680.991C446.677 682.473 444.199 686.276 442.82 687.655C441.374 689.102 440.553 693.452 441.79 695.114C446.988 702.093 453.928 708.941 462.078 712.201" stroke="black" stroke-width="1.66484" stroke-linecap="round"/>
<path d="M450.055 716.208C452.956 715.664 455.891 715.723 458.821 715.457" stroke="black" stroke-width="1.66484" stroke-linecap="round"/>
<path d="M439.284 708.194C443.8 707.608 451.557 709.574 451.557 715.207" stroke="black" stroke-width="1.66484" stroke-linecap="round"/>
<path d="M438.533 707.442C439.444 709.516 440.504 711.934 440.787 714.205" stroke="black" stroke-width="1.66484" stroke-linecap="round"/>
<path d="M422.002 711.7C431.134 713.704 439.945 714.862 449.303 714.455" stroke="black" stroke-width="1.66484" stroke-linecap="round"/>
<path d="M422.752 712.452C420.71 713.187 419.258 715.317 420.665 717.461C421.953 719.424 424.364 720.873 426.008 722.582C428.635 725.312 426.008 727.549 426.008 730.486C426.008 732.943 426.838 733.518 429.014 734.549C430.982 735.481 429.663 736.986 428.763 738.014C427.54 739.412 428.521 740.918 430.002 741.381C431.504 741.85 432.915 743.633 433.467 745.068C433.75 745.805 433.918 746.611 434.399 747.253C435.215 748.341 437.216 748.542 438.434 748.895C449.697 752.165 459.167 751.624 470.678 750.578" stroke="black" stroke-width="1.66484" stroke-linecap="round"/>
<path d="M420.25 719.214C418.005 719.699 414.447 722.79 416.048 725.42C416.938 726.884 419.893 727.814 420 729.734C420.13 732.078 416.805 734.301 419.499 736.302C420.973 737.398 422.333 738.348 424.063 739.002C425.516 739.551 425.51 739.685 425.51 741.256C425.51 743.84 425.6 744.998 428.21 746.154C430.6 747.213 432.079 747.32 434.411 746.154" stroke="black" stroke-width="1.66484" stroke-linecap="round"/>
<path d="M433.524 747.017C433.972 749.388 435.312 751.448 435.779 753.779" stroke="black" stroke-width="1.66484" stroke-linecap="round"/>
<path d="M432.63 753.673C438.068 755.314 448.346 753.673 451.379 751.405" stroke="black" stroke-width="1.66484" stroke-linecap="round"/>
<path d="M432.52 754.337C434.689 759.186 435.455 763.525 437.783 764.8" stroke="black" stroke-width="1.66484" stroke-linecap="round"/>
<path d="M435.277 763.798C441.414 766.382 451.195 766.042 455.993 758.904" stroke="black" stroke-width="1.66484" stroke-linecap="round"/>
<path d="M454.18 751.52C454.938 753.45 455.224 755.473 455.947 757.402C456.452 758.75 456.419 758.055 455.708 757.424" stroke="black" stroke-width="1.66484" stroke-linecap="round"/>
<path d="M425.509 711.95C423.132 710.94 424.041 708.621 422.754 706.69" stroke="black" stroke-width="1.66484" stroke-linecap="round"/>
<path d="M420.249 702.683C420.112 702.494 419.541 701.227 419.136 701.458C418.768 701.668 418.733 702.91 418.802 703.239C419.499 706.561 425.16 706.025 427.513 705.688" stroke="black" stroke-width="1.66484" stroke-linecap="round"/>
<path d="M438.534 704.687C438.806 703.299 439.666 701.985 439.48 700.541C439.304 699.171 438.301 698.842 437.282 698.175C435.469 696.99 436.217 696.505 437.031 694.919C438.411 692.232 435.895 690.978 433.58 690.216C432.156 689.747 429.031 688.642 427.764 689.91" stroke="black" stroke-width="1.66484" stroke-linecap="round"/>
<path d="M419.747 702.182C420.085 700.368 420.165 699.416 418.579 698.272C417.744 697.67 415.07 696.524 414.794 695.419C414.263 693.296 426.868 692.172 428.514 691.913" stroke="black" stroke-width="1.66484" stroke-linecap="round"/>
<path d="M422.252 698.926C426.549 699.316 430.565 699.11 434.775 698.174" stroke="black" stroke-width="1.66484" stroke-linecap="round"/>
<path d="M425.007 704.186C428.398 705.439 433.62 706.042 436.779 703.936" stroke="black" stroke-width="1.66484" stroke-linecap="round"/>
<path d="M463.33 759.54C464.357 764.132 464.649 768.833 465.696 773.427C467.366 780.759 470.39 786.79 474.351 793.103" stroke="black" stroke-width="1.66484" stroke-linecap="round"/>
<path d="M472.598 792.352C474.634 795.772 478.451 797.151 482.283 797.834C490.837 799.359 499.7 796.16 508.123 798.265C513.606 799.636 518.34 802.437 524.139 802.37C527.067 802.337 529.799 801.648 532.53 800.645C533.358 800.341 534.36 800.221 534.965 799.615" stroke="black" stroke-width="1.66484" stroke-linecap="round"/>
<path d="M507.913 752.777C507.984 754.491 508.456 756.058 508.971 757.689C511.134 764.539 513.757 771.249 516.513 777.88C518.805 783.396 521.276 788.908 524.388 794.021C526.424 797.365 529.005 800.336 531.457 803.372" stroke="black" stroke-width="1.66484" stroke-linecap="round"/>
<path d="M509.802 759.468C530.633 755.996 550.208 743.365 564.016 729.556" stroke="black" stroke-width="1.66484" stroke-linecap="round"/>
<path d="M515.495 775.205C537.735 772.994 566.347 751.405 569.859 734.888" stroke="black" stroke-width="1.66484" stroke-linecap="round"/>
<path d="M556.003 721.811C561.002 725.75 566.143 732.509 571.282 736.246" stroke="black" stroke-width="1.66484" stroke-linecap="round"/>
<path d="M446.209 766.001C454.349 770.561 463.466 770.561 465.509 770.561" stroke="black" stroke-width="1.66484" stroke-linecap="round"/>
<path d="M455.642 756.213C455.642 756.213 461.888 758.867 466.586 760.041" stroke="black" stroke-width="1.66484" stroke-linecap="round"/>
<path d="M420.798 691.598C405.679 636.939 391.172 560.388 383.708 531.525C381.62 523.456 390.346 516.847 393.358 531.525C397.82 553.274 416.146 637.521 428.938 691.598" stroke="black" stroke-width="1.66484" stroke-linecap="round"/>
<path d="M378.082 571.836C378.481 571.61 378.874 571.398 379.258 571.201C383.342 569.1 385.189 572.611 380.344 572.252C379.569 572.195 378.815 572.053 378.082 571.836C371.959 575.299 364.18 582.033 361.626 588.921C363.351 594.163 364.094 599.383 363.411 602.72C362.846 605.486 361.523 602.539 361.253 601.425C360.47 598.201 360.399 594.893 360.908 591.625C361.048 590.726 361.292 589.822 361.626 588.921C359.071 581.153 354.36 573.337 348.941 571.533C346.396 573.496 344.149 574.04 342.799 572.252C344.894 571.017 346.965 570.875 348.941 571.533C353.902 567.708 360 558.495 362.819 550.663C361.221 544.556 361.303 539.538 363.411 539.538C365.018 541.786 364.505 545.977 362.819 550.663C365.021 559.081 370.413 569.57 378.082 571.836Z" fill="#FDD13B"/>
<path d="M338.147 572.252C349.861 565.344 360.823 592.635 358.76 602.72C358.194 605.486 356.872 602.539 356.602 601.425C355.819 598.201 355.748 594.893 356.256 591.625C357.535 583.402 367.577 574.816 374.606 571.201C378.691 569.1 380.537 572.611 375.692 572.252C360.95 571.16 353.466 539.538 358.76 539.538C364.429 547.472 343.704 579.611 338.147 572.252Z" stroke="black" stroke-width="1.66484" stroke-linecap="round" stroke-linejoin="round"/>
<path d="M347.937 542.169C348.186 542.027 348.431 541.895 348.671 541.772C351.222 540.46 352.375 542.652 349.349 542.428C348.866 542.392 348.395 542.304 347.937 542.169C344.114 544.331 339.256 548.536 337.661 552.837C338.738 556.111 339.202 559.37 338.776 561.454C338.423 563.181 337.597 561.341 337.428 560.645C336.939 558.632 336.895 556.566 337.212 554.526C337.3 553.964 337.453 553.4 337.661 552.837C336.065 547.987 333.124 543.106 329.74 541.979C328.15 543.205 326.748 543.545 325.904 542.428C327.212 541.657 328.506 541.568 329.74 541.979C332.838 539.59 336.646 533.838 338.406 528.947C337.408 525.133 337.459 522 338.776 522C339.779 523.404 339.459 526.021 338.406 528.947C339.781 534.204 343.148 540.753 347.937 542.169Z" fill="#FDD13B"/>
<path d="M323 542.429C330.315 538.115 337.16 555.157 335.872 561.455C335.518 563.181 334.693 561.341 334.524 560.646C334.035 558.633 333.991 556.567 334.308 554.526C335.107 549.391 341.377 544.03 345.767 541.772C348.318 540.46 349.47 542.653 346.445 542.429C337.239 541.747 332.566 522 335.872 522C339.411 526.955 326.47 547.024 323 542.429Z" stroke="black" stroke-width="1.66484" stroke-linecap="round" stroke-linejoin="round"/>
<ellipse cx="379.906" cy="715.841" rx="4.39642" ry="4.23992" fill="#FFF6D5"/>
<path d="M377.484 713.67C371.995 723.899 384.494 717.149 380.651 713.306C377.911 710.566 370.008 716.707 376.55 718.343" stroke="black" stroke-width="1.66484" stroke-linecap="round"/>
<path d="M455.224 610.351C465.837 610.969 469.408 611.181 481.008 611.863C487.177 612.225 488.428 618.554 481.008 618.259C471.89 617.897 463.945 617.453 457.954 617.107C448.051 617.107 447.875 609.92 455.224 610.351Z" fill="#BEB9B9"/>
<path fill-rule="evenodd" clip-rule="evenodd" d="M473.692 610.268C475.812 610.393 478.197 610.533 481.075 610.702C484.445 610.9 487.024 612.789 487.261 615.194C487.384 616.453 486.806 617.626 485.654 618.401C484.545 619.145 482.956 619.501 480.961 619.421C471.849 619.059 463.909 618.616 457.92 618.27C455.329 618.266 453.278 617.796 451.783 617.025C450.296 616.259 449.257 615.132 448.98 613.805C448.691 612.415 449.303 611.117 450.483 610.277C451.629 609.462 453.287 609.073 455.291 609.19M473.692 610.268C467.269 609.89 463.271 609.655 455.291 609.19L473.692 610.268ZM473.555 612.59C467.133 612.212 463.134 611.977 455.156 611.512L455.155 611.512C453.485 611.414 452.409 611.761 451.831 612.173C451.287 612.56 451.184 612.977 451.257 613.33C451.344 613.746 451.746 614.39 452.848 614.957C453.935 615.517 455.608 615.944 457.953 615.944L457.987 615.944L458.02 615.946C464.009 616.292 471.946 616.735 481.053 617.097C482.769 617.165 483.806 616.84 484.357 616.47C484.864 616.129 484.979 615.753 484.946 615.421C484.87 614.645 483.739 613.188 480.939 613.024C478.06 612.855 475.675 612.714 473.555 612.59Z" fill="black"/>
<path d="M494.804 619.225C505.435 619.259 509.012 619.274 520.632 619.317C526.812 619.339 528.409 625.59 520.984 625.703C511.86 625.843 503.903 625.837 497.902 625.821C488.013 626.366 487.443 619.199 494.804 619.225Z" fill="#BEB9B9"/>
<path fill-rule="evenodd" clip-rule="evenodd" d="M513.239 618.127C515.363 618.135 517.751 618.144 520.635 618.154C524.01 618.167 526.69 619.911 527.058 622.299C527.251 623.549 526.738 624.753 525.63 625.589C524.564 626.394 522.996 626.836 521 626.867C511.882 627.006 503.93 627 497.931 626.985C495.344 627.123 493.27 626.766 491.734 626.079C490.207 625.396 489.108 624.328 488.759 623.018C488.393 621.646 488.933 620.316 490.065 619.413C491.165 618.536 492.799 618.056 494.806 618.063M513.239 618.127C506.805 618.103 502.799 618.088 494.806 618.063L513.239 618.127ZM513.23 620.453C506.796 620.429 502.791 620.414 494.799 620.389C493.126 620.383 492.071 620.789 491.516 621.231C490.994 621.648 490.914 622.071 491.007 622.419C491.116 622.829 491.553 623.45 492.685 623.956C493.8 624.455 495.494 624.79 497.836 624.661L497.87 624.659L497.903 624.659C503.902 624.674 511.851 624.68 520.965 624.541C522.681 624.515 523.699 624.133 524.229 623.733C524.716 623.365 524.81 622.983 524.759 622.654C524.64 621.883 523.431 620.49 520.627 620.48C517.742 620.47 515.354 620.461 513.23 620.453Z" fill="black"/>
</g>
</g>
</g>
<defs>
<filter id="filter0_dd_634_21836" x="0" y="0" width="581" height="834" filterUnits="userSpaceOnUse" color-interpolation-filters="sRGB">
<feFlood flood-opacity="0" result="BackgroundImageFix"/>
<feColorMatrix in="SourceAlpha" type="matrix" values="0 0 0 0 0 0 0 0 0 0 0 0 0 0 0 0 0 0 127 0" result="hardAlpha"/>
<feOffset dy="8"/>
<feGaussianBlur stdDeviation="8"/>
<feColorMatrix type="matrix" values="0 0 0 0 0.376471 0 0 0 0 0.380392 0 0 0 0 0.439216 0 0 0 0.16 0"/>
<feBlend mode="normal" in2="BackgroundImageFix" result="effect1_dropShadow_634_21836"/>
<feColorMatrix in="SourceAlpha" type="matrix" values="0 0 0 0 0 0 0 0 0 0 0 0 0 0 0 0 0 0 127 0" result="hardAlpha"/>
<feOffset dy="2"/>
<feGaussianBlur stdDeviation="2"/>
<feColorMatrix type="matrix" values="0 0 0 0 0.156863 0 0 0 0 0.160784 0 0 0 0 0.239216 0 0 0 0.04 0"/>
<feBlend mode="normal" in2="effect1_dropShadow_634_21836" result="effect2_dropShadow_634_21836"/>
<feBlend mode="normal" in="SourceGraphic" in2="effect2_dropShadow_634_21836" result="shape"/>
</filter>
<clipPath id="clip0_634_21836">
<rect x="16" y="8" width="549" height="802" rx="6" fill="white"/>
</clipPath>
</defs>
</svg>
