<svg width="352" height="306" viewBox="0 0 352 306" fill="none" xmlns="http://www.w3.org/2000/svg">
<path d="M61.9208 10.0795C62.8853 17.3126 86.8626 119.636 99.3195 171.674H107.155C95.1001 114.814 74.0527 21.7279 71.3567 10.0795C68.6608 -1.56881 60.3078 -2.01725 61.9208 10.0795Z" fill="#4CD0FB"/>
<path d="M142.124 266.145L138.199 262.957C135.059 275.714 139.508 287.898 142.124 292.396C134.274 289.861 117.003 286.312 110.723 292.396C104.442 298.48 108.106 302.127 110.723 303.19C125.246 293.77 142.124 296.812 148.748 299.51C141.29 287.538 141.225 272.279 142.124 266.145Z" fill="#CD5F27"/>
<path d="M219.819 272.322L223.744 263.872C231.407 295.448 222.435 288.813 219.819 293.311C227.669 290.776 238.952 287.227 245.232 293.311C251.513 299.395 247.849 303.937 245.233 305C230.709 295.58 219.429 296.018 212.805 298.716C223.354 285.193 220.718 278.455 219.819 272.322Z" fill="#CD5F27"/>
<path d="M134.724 255.485C134.982 252.643 137.846 248.703 139.245 247.088L245.826 216.083L274.57 208.655L280.06 233.846L229.031 253.871V269.696L217.727 274.218C210.751 271.117 206.854 263.667 205.777 260.33C190.705 261.622 158.107 264.27 148.289 264.529C136.016 264.852 134.401 259.038 134.724 255.485Z" fill="#F1CF58"/>
<path d="M142.686 249.043C135.594 249.326 127.911 246.088 124.957 244.433L119.638 187.697L126.73 180.96C123.302 177.65 117.652 169.684 122.474 164.294C128.503 157.556 124.957 158.975 124.957 152.237C124.957 146.847 131.812 143.372 135.24 142.309L159.707 185.57C161.835 186.988 172.474 187.237 177.215 180.96C202.391 147.628 212.897 138.053 221.762 131.671C228.854 126.564 232.045 127.652 232.755 128.834C233.7 132.262 238.144 140.394 248.357 145.5C261.122 151.883 252.967 156.138 252.967 161.457V171.031C250.981 188.619 238.665 197.981 232.755 200.463L248.357 215.356C246.088 220.178 238.901 229.185 235.591 233.086C222.542 247.837 202.496 252.707 194.103 253.298L206.869 276.701C208.642 278.593 209.777 282.162 200.132 281.311C188.075 280.247 194.458 274.574 178.856 276.701C166.374 278.403 156.634 275.992 153.325 274.574L142.686 249.043Z" fill="#BA9E28"/>
<path d="M241.861 209.954C223.687 226.37 197.401 236.092 186.531 238.901V231.939L233.8 200.793L241.861 209.954Z" fill="#404041"/>
<path d="M134.387 235.529L131.983 231.939L137.325 230.188L140.797 237.399L134.387 235.529Z" fill="#404041"/>
<path d="M113.194 233.598V227.354L103.107 190.85C101.826 188.769 98.5924 184.125 95.9028 182.204C93.2131 180.283 97.0234 177.241 99.2648 175.96C95.1021 175.96 88.6019 175.192 95.9028 172.117C103.204 169.043 107.911 168.275 109.352 168.275C124.722 172.117 109.352 173.078 115.596 175.96C120.591 178.266 117.677 182.684 115.596 184.606L130.486 231.197C132.567 231.997 135.481 234.751 130.486 239.362C125.49 243.973 116.877 243.205 113.194 242.244L109.352 233.598H113.194Z" fill="#C4C4C4"/>
<path d="M92.748 174.639L100.332 171.268H106.881C106.5 170.537 106.258 169.013 108.336 168.764C110.933 168.452 114.777 170.53 114.777 172.816C114.777 175.101 113.738 175.932 116.958 178.529C119.534 180.607 116.577 182.788 114.777 183.619C111.002 184.381 102.829 185.759 100.332 185.178C97.8345 184.596 97.0783 182.65 97.0123 181.75L97.6356 177.698L92.748 174.639Z" fill="#404041"/>
<path d="M114.777 243.068L110.843 233.29C121.409 234.551 129.125 231.082 131.662 229.189L133.87 237.706C129.328 245.276 119.248 244.435 114.777 243.068Z" fill="#404041"/>
<path d="M147.652 214.647C145.099 196.775 139.024 192.78 136.305 193.016C134.414 193.726 130.206 194.222 128.504 190.534C126.802 186.846 119.757 186.634 116.447 186.988L118.93 193.016C111.483 193.016 105.1 189.47 99.4268 190.534C94.8881 191.385 97.5357 195.853 99.4268 197.981C95.7625 198.69 89.6396 200.888 94.4621 204.009C100.49 207.91 98.3629 211.101 96.9445 214.647C95.8098 217.484 100.491 218.429 102.973 218.547C101.318 219.493 101.129 222.448 113.611 226.703C126.093 230.958 141.506 230.367 147.652 229.54V214.647Z" fill="#F1CF58"/>
<path d="M158.923 186.518C147.712 180.016 136.876 159.147 132.859 149.524L138.744 78.0593C136.782 77.4988 132.466 75.2007 130.897 70.4925C129.328 65.7842 141.64 63.6729 147.992 63.2058C137.062 63.7663 118.523 53.7426 130.897 48.072C145.528 41.3672 160.791 48.1654 166.209 51.4351C164.795 48.0713 163.369 43.2994 166.209 42.7472C198.495 36.4708 223.008 68.157 231.228 84.7855C235.264 91.96 229.547 117.482 226.184 129.346C209.935 143.424 199.924 163.446 192.843 170.038C189.747 172.921 180.695 181.941 177.239 186.518H158.923Z" fill="#F1CF58"/>
<path d="M181.055 168.315L173.157 160.395C172.215 159.507 171.093 158.832 169.867 158.415C167.163 157.516 164.475 158.218 162.298 160.395L154.378 168.315C153.487 169.256 152.812 170.379 152.398 171.606C151.493 174.31 152.195 176.998 154.378 179.175L162.298 187.1C163.24 187.989 164.362 188.664 165.588 189.08C166.326 189.327 167.098 189.455 167.876 189.459C168.869 189.44 169.849 189.221 170.756 188.816C171.663 188.411 172.48 187.827 173.157 187.1L181.077 179.175C181.969 178.235 182.645 177.112 183.057 175.884C183.962 173.18 183.255 170.487 181.077 168.31L181.055 168.315ZM168.347 162.688C168.944 162.879 169.494 163.195 169.96 163.615L172.302 165.957L167.733 170.52L163.17 165.957L165.523 163.598C166.153 162.973 167.042 162.299 168.347 162.688ZM156.687 173.109C156.882 172.515 157.198 171.968 157.614 171.502L159.956 169.154L164.524 173.723L159.956 178.286L157.603 175.934C156.972 175.303 156.303 174.414 156.687 173.109ZM167.108 184.769C166.505 184.576 165.95 184.259 165.479 183.837L163.137 181.495L167.7 176.926L172.269 181.495L169.91 183.848C169.285 184.479 168.391 185.153 167.091 184.764L167.108 184.769ZM178.746 174.343C178.555 174.939 178.241 175.488 177.825 175.955L175.477 178.297L170.914 173.734L175.477 169.165L177.836 171.524C178.467 172.155 179.136 173.043 178.746 174.343Z" fill="#00ACE4"/>
<path fill-rule="evenodd" clip-rule="evenodd" d="M151.052 134.728C161.241 136.802 167.519 135.677 180.789 130.582C176.346 138.994 173.344 143.425 167.064 149.883C158.77 144.906 155.495 141.6 151.052 134.728Z" fill="#DC6126"/>
<path fill-rule="evenodd" clip-rule="evenodd" d="M180.217 131.44C166.921 139.875 161.872 139.577 151.623 137.444C149.076 136.97 145.987 133.734 143.617 132.726C151.623 126.436 156.166 122.074 165.348 117.572C169.021 122.667 171.982 126.226 180.217 131.44Z" fill="#F17727"/>
<path d="M156.495 76.3268C138.705 88.6811 116.606 64.2988 146.006 63.6306C148.971 63.5632 159.333 62.2978 156.495 61.4376C146.006 66.2296 128.203 60.2465 127.47 52.43C127.07 48.1616 137.364 45.8645 144.515 45.8645C160.431 47.0625 168.304 52.43 165.736 52.43C163.394 52.43 162.413 44.6398 168.646 41.7562C190.744 36.0203 225.636 65.7746 231.454 84.5422C233.936 92.5473 230.743 114.239 226.608 127.471" stroke="black" stroke-width="1.66484" stroke-linecap="round"/>
<path d="M144.413 132.625C149.597 137.55 156.488 139.58 163.53 138.846C170.9 138.078 178.952 134.349 183.443 128.301" stroke="black" stroke-width="1.66484" stroke-linecap="round"/>
<path d="M143.514 133.064C149.689 127.655 159.452 121.522 166.34 117.09" stroke="black" stroke-width="1.66484" stroke-linecap="round"/>
<path d="M165.603 118.159C167.83 121.382 170.336 124.322 173.39 126.807C175.658 128.654 178.276 129.983 180.758 131.507" stroke="black" stroke-width="1.66484" stroke-linecap="round"/>
<path d="M152.564 137.631C156.822 142.64 160.631 146.638 166.675 149.17" stroke="black" stroke-width="1.66484" stroke-linecap="round"/>
<path d="M166.341 151.031C171.004 146.509 176.32 137.688 179.549 131.569" stroke="black" stroke-width="1.66484" stroke-linecap="round"/>
<path d="M137.894 79.0845C137.894 79.0845 134.863 130.63 133.863 149.699" stroke="black" stroke-width="1.66484" stroke-linecap="round"/>
<path d="M150.007 118.458C138.253 120.857 133.633 108.447 133.233 103.05L147.676 101.361L161.82 103.05C161.82 113.64 153.406 118.358 150.007 118.458Z" fill="white"/>
<path d="M145.777 101.99C143.391 110.445 157.05 110.553 153.473 101.99H145.777Z" fill="#030405" stroke="#030405" stroke-width="1.66484" stroke-linecap="round"/>
<path d="M132.763 102.925C136.756 101.541 141.119 101.585 145.294 101.48C150.073 101.36 157.697 102.138 162.422 102.926" stroke="black" stroke-width="1.66484" stroke-linecap="round"/>
<path d="M132.587 104.123C132.797 110.943 139.198 117.813 145.803 118.917C150.099 119.634 154.948 118.162 157.973 115.009C159.434 113.486 160.609 111.635 161.434 109.694C162.367 107.497 162.368 105.415 162.536 103.096" stroke="black" stroke-width="1.66484" stroke-linecap="round"/>
<path d="M188.794 118.361C177.039 120.76 173.301 110.564 172.901 105.167L201.388 102.768C201.388 114.763 192.192 118.261 188.794 118.361Z" fill="white"/>
<path d="M184.819 105.042C182.433 113.497 196.092 113.606 192.515 105.042H184.819Z" fill="#030405" stroke="#030405" stroke-width="1.66484" stroke-linecap="round"/>
<path d="M172.328 104.215C173.737 128.389 203.982 120.367 200.622 103.563" stroke="black" stroke-width="1.66484" stroke-linecap="round"/>
<path d="M171.701 103.674C181.611 103.674 191.394 103.713 201.308 103.332" stroke="black" stroke-width="1.66484" stroke-linecap="round"/>
<path d="M137.193 249.303C135.36 256.002 132.537 259.819 139.519 263.83C142.334 265.446 145.626 266.276 148.623 264.98" stroke="black" stroke-width="1.66484" stroke-linecap="round"/>
<path d="M141.729 264.982C141.729 264.982 141.479 288.136 148.786 300.01" stroke="black" stroke-width="1.66484" stroke-linecap="round"/>
<path d="M137.469 262.697C137.469 262.697 135.194 282.496 141.991 292.952" stroke="black" stroke-width="1.66484" stroke-linecap="round"/>
<path d="M110.882 302.621C116.886 298.497 136.76 293.997 148.785 299.222" stroke="black" stroke-width="1.66484" stroke-linecap="round"/>
<path d="M110.1 292.604C121.078 286.941 131.907 289.242 141.99 292.603" stroke="black" stroke-width="1.66484" stroke-linecap="round"/>
<path d="M109.269 298.092C116.084 295.4 122.737 292.695 130.201 292.948" stroke="black" stroke-width="1.66484" stroke-linecap="round"/>
<path d="M209.133 259.781C204.866 260.729 200.778 261.409 196.722 261.672" stroke="black" stroke-width="1.66484" stroke-linecap="round"/>
<path d="M205.198 260.837C207.495 265.49 209.793 271.275 217.197 274.619" stroke="black" stroke-width="1.66484" stroke-linecap="round"/>
<path d="M228.691 253.811C228.691 258.221 228.066 266.232 228.691 270.609" stroke="black" stroke-width="1.66484" stroke-linecap="round"/>
<path d="M222.69 256.707C243.468 247.631 263.91 239.233 284.917 231.494" stroke="black" stroke-width="1.66484" stroke-linecap="round"/>
<path d="M246.686 217.009C259.041 213.367 265.479 211.505 277.581 208.444" stroke="black" stroke-width="1.66484" stroke-linecap="round"/>
<path d="M273.391 204.951C276.637 216.5 278.478 228.194 281.074 239.873" stroke="black" stroke-width="1.66484" stroke-linecap="round"/>
<path d="M256.628 224.508C265.54 219.637 274.737 215.315 283.868 210.888" stroke="black" stroke-width="1.66484" stroke-linecap="round"/>
<path d="M261.518 230.796C270.045 226.221 278.603 222.808 287.71 219.621" stroke="black" stroke-width="1.66484" stroke-linecap="round"/>
<path d="M216.816 274.799C222.722 273.549 226.59 271.661 230.785 267.465" stroke="black" stroke-width="1.66484" stroke-linecap="round"/>
<path d="M220.657 274.096L221.752 283.361C221.752 287.453 218.85 292.791 211.606 299.019" stroke="black" stroke-width="1.66484" stroke-linecap="round"/>
<path d="M226.023 271.977C226.023 278.204 228.692 286.745 224.777 289.592L219.439 295.997" stroke="black" stroke-width="1.66484" stroke-linecap="round"/>
<path d="M213.324 299.593C224.066 299.593 235.81 295.285 242.749 304.537" stroke="black" stroke-width="1.66484" stroke-linecap="round"/>
<path d="M220.329 295.995C231.005 293.328 240.435 293.506 247.552 298.546" stroke="black" stroke-width="1.66484" stroke-linecap="round"/>
<path d="M221.04 294.038C224.777 291.192 236.876 289.591 245.238 292.616" stroke="black" stroke-width="1.66484" stroke-linecap="round"/>
<path d="M134.066 193.956C146.808 187.238 148.404 226.821 148.404 230.681C149.659 239.843 143.441 235.92 142.062 230.681" stroke="black" stroke-width="1.66484" stroke-linecap="round"/>
<path d="M135.723 229.968C138.587 233.512 141.086 237.649 144.802 240.351C167.391 248.566 224.095 210.327 242.552 192.708" stroke="black" stroke-width="1.66484" stroke-linecap="round"/>
<path d="M134.317 193.706C133.908 193.384 132.503 192.421 133.023 191.702C133.528 191.004 135.005 190.756 135.736 190.561C138.558 189.811 141.462 189.462 144.364 189.197C155.328 188.197 166.319 187.485 177.287 186.498C185.992 185.715 194.718 185.095 203.447 184.689" stroke="black" stroke-width="1.66484" stroke-linecap="round"/>
<path d="M180.655 186.442C181.493 186.559 182.017 186.535 182.77 186.136C185.012 184.949 187.42 184.115 189.825 183.325C195.948 181.313 202.282 180.012 208.458 178.176" stroke="black" stroke-width="1.66484" stroke-linecap="round"/>
<path d="M191.693 182.429C211.546 166.988 229.931 156.053 241.6 154.58" stroke="black" stroke-width="1.66484" stroke-linecap="round"/>
<path d="M174.286 187.131C196.506 175.166 207.3 142.172 228.243 128.083" stroke="black" stroke-width="1.66484" stroke-linecap="round"/>
<path d="M227.491 128.584C232.224 126.18 234.815 132.382 237.463 135.831C247.55 148.968 259.797 147.136 252.628 161.198" stroke="black" stroke-width="1.66484" stroke-linecap="round"/>
<path d="M241.267 154.382C249.16 152.928 253.529 160.886 253.512 167.88C253.493 175.405 249.474 183.03 245.163 188.975C241.968 193.381 237.994 197.061 234.003 200.719" stroke="black" stroke-width="1.66484" stroke-linecap="round"/>
<path d="M132.137 146.859C139.581 167.815 147.302 175.535 159.434 187.667" stroke="black" stroke-width="1.66484" stroke-linecap="round"/>
<path d="M133.24 143C130.214 142.739 126.975 146.669 125.955 149.066C124.155 153.292 128.883 156.594 125.955 159.991C124.677 161.473 122.199 165.276 120.82 166.655C119.374 168.102 118.553 172.452 119.79 174.114C124.988 181.093 131.928 187.941 140.078 191.201" stroke="black" stroke-width="1.66484" stroke-linecap="round"/>
<path d="M128.055 195.208C130.956 194.664 133.891 194.723 136.821 194.457" stroke="black" stroke-width="1.66484" stroke-linecap="round"/>
<path d="M117.284 187.194C121.8 186.608 129.557 188.574 129.557 194.207" stroke="black" stroke-width="1.66484" stroke-linecap="round"/>
<path d="M116.533 186.442C117.444 188.516 118.504 190.934 118.787 193.205" stroke="black" stroke-width="1.66484" stroke-linecap="round"/>
<path d="M100.002 190.7C109.134 192.704 117.945 193.862 127.303 193.455" stroke="black" stroke-width="1.66484" stroke-linecap="round"/>
<path d="M100.752 191.452C98.7098 192.187 97.2577 194.317 98.6649 196.461C99.9534 198.424 102.364 199.873 104.008 201.582C106.635 204.312 104.008 206.549 104.008 209.486C104.008 211.943 104.838 212.518 107.014 213.549C108.982 214.481 107.663 215.986 106.763 217.014C105.54 218.412 106.521 219.918 108.002 220.381C109.504 220.85 110.915 222.633 111.467 224.068C111.75 224.805 111.918 225.611 112.399 226.253C113.215 227.341 115.216 227.542 116.434 227.895C127.697 231.165 137.167 230.624 148.678 229.578" stroke="black" stroke-width="1.66484" stroke-linecap="round"/>
<path d="M98.2501 198.214C96.0049 198.699 92.4465 201.79 94.0478 204.42C94.9384 205.884 97.893 206.814 97.9997 208.734C98.1299 211.078 94.8052 213.301 97.4987 215.302C98.9734 216.398 100.333 217.348 102.063 218.002C103.516 218.551 103.51 218.685 103.51 220.256C103.51 222.84 103.6 223.998 106.21 225.154C108.6 226.213 110.079 226.32 112.411 225.154" stroke="black" stroke-width="1.66484" stroke-linecap="round"/>
<path d="M111.524 226.017C111.972 228.388 113.312 230.448 113.779 232.779" stroke="black" stroke-width="1.66484" stroke-linecap="round"/>
<path d="M110.63 232.673C116.068 234.314 126.346 232.673 129.379 230.405" stroke="black" stroke-width="1.66484" stroke-linecap="round"/>
<path d="M110.52 233.337C112.689 238.186 113.455 242.525 115.783 243.8" stroke="black" stroke-width="1.66484" stroke-linecap="round"/>
<path d="M113.277 242.798C119.414 245.382 129.195 245.042 133.993 237.904" stroke="black" stroke-width="1.66484" stroke-linecap="round"/>
<path d="M132.18 230.52C132.938 232.45 133.224 234.473 133.947 236.402C134.452 237.75 134.419 237.055 133.708 236.424" stroke="black" stroke-width="1.66484" stroke-linecap="round"/>
<path d="M103.509 190.95C101.132 189.94 102.041 187.621 100.754 185.69" stroke="black" stroke-width="1.66484" stroke-linecap="round"/>
<path d="M98.2493 181.683C98.1122 181.494 97.5412 180.227 97.1361 180.458C96.7685 180.668 96.733 181.91 96.8021 182.239C97.4985 185.561 103.16 185.025 105.513 184.688" stroke="black" stroke-width="1.66484" stroke-linecap="round"/>
<path d="M116.534 183.687C116.806 182.299 117.666 180.985 117.48 179.541C117.304 178.171 116.301 177.842 115.282 177.175C113.469 175.99 114.217 175.505 115.031 173.919C116.411 171.232 113.895 169.978 111.58 169.216C110.156 168.747 107.031 167.642 105.764 168.91" stroke="black" stroke-width="1.66484" stroke-linecap="round"/>
<path d="M97.7474 181.182C98.0848 179.368 98.1653 178.416 96.5785 177.272C95.7441 176.67 93.0698 175.524 92.7936 174.419C92.2629 172.296 104.868 171.172 106.514 170.913" stroke="black" stroke-width="1.66484" stroke-linecap="round"/>
<path d="M100.252 177.926C104.549 178.316 108.565 178.11 112.775 177.174" stroke="black" stroke-width="1.66484" stroke-linecap="round"/>
<path d="M103.007 183.186C106.398 184.439 111.62 185.042 114.779 182.936" stroke="black" stroke-width="1.66484" stroke-linecap="round"/>
<path d="M141.33 238.54C142.357 243.132 142.649 247.833 143.696 252.427C145.366 259.759 148.39 265.79 152.351 272.103" stroke="black" stroke-width="1.66484" stroke-linecap="round"/>
<path d="M150.598 271.352C152.634 274.772 156.451 276.151 160.283 276.834C168.837 278.359 177.7 275.16 186.123 277.265C191.606 278.636 196.34 281.437 202.139 281.37C205.067 281.337 207.799 280.648 210.53 279.645C211.358 279.341 212.36 279.221 212.965 278.615" stroke="black" stroke-width="1.66484" stroke-linecap="round"/>
<path d="M185.913 231.777C185.984 233.491 186.456 235.058 186.971 236.689C189.134 243.539 191.757 250.249 194.513 256.88C196.805 262.396 199.276 267.908 202.388 273.021C204.424 276.365 207.005 279.336 209.457 282.372" stroke="black" stroke-width="1.66484" stroke-linecap="round"/>
<path d="M187.802 238.468C208.633 234.996 228.208 222.365 242.016 208.556" stroke="black" stroke-width="1.66484" stroke-linecap="round"/>
<path d="M193.495 254.205C215.735 251.994 244.347 230.405 247.859 213.888" stroke="black" stroke-width="1.66484" stroke-linecap="round"/>
<path d="M234.003 200.811C239.002 204.75 244.143 211.509 249.282 215.246" stroke="black" stroke-width="1.66484" stroke-linecap="round"/>
<path d="M124.209 245.001C132.349 249.561 141.466 249.561 143.509 249.561" stroke="black" stroke-width="1.66484" stroke-linecap="round"/>
<path d="M133.642 235.213C133.642 235.213 139.888 237.867 144.586 239.041" stroke="black" stroke-width="1.66484" stroke-linecap="round"/>
<path d="M98.7975 170.598C83.6791 115.939 69.1721 39.3879 61.7076 10.5252C59.6205 2.45574 68.3461 -4.15304 71.3575 10.5253C75.8196 32.274 94.1457 116.521 106.938 170.598" stroke="black" stroke-width="1.66484" stroke-linecap="round"/>
<path d="M56.0815 50.8362C56.4813 50.6102 56.8739 50.398 57.2576 50.2007C61.3425 48.0999 63.1887 51.6109 58.3438 51.252C57.5694 51.1947 56.8151 51.0531 56.0815 50.8362C49.9592 54.299 42.1804 61.033 39.6263 67.9212C41.3508 73.1631 42.094 78.3833 41.4115 81.7201C40.8458 84.4855 39.5235 81.5388 39.253 80.425C38.47 77.201 38.3993 73.8929 38.9076 70.6252C39.0475 69.7259 39.2922 68.8222 39.6263 67.9212C37.0707 60.1531 32.3603 52.3374 26.9413 50.5331C24.3956 52.496 22.1493 53.0405 20.7988 51.252C22.8938 50.0166 24.9646 49.8749 26.9413 50.5331C31.9023 46.7076 38.0001 37.4948 40.8188 29.6627C39.2213 23.5558 39.3025 18.5381 41.4115 18.5381C43.0177 20.7862 42.505 24.9774 40.8188 29.6627C43.0209 38.0812 48.4132 48.5695 56.0815 50.8362Z" fill="#FDD13B"/>
<path d="M16.1475 51.252C27.8615 44.3438 38.823 71.635 36.7601 81.7201C36.1945 84.4855 34.8721 81.5388 34.6016 80.425C33.8186 77.201 33.748 73.8929 34.2563 70.6252C35.5355 62.4017 45.5772 53.8156 52.6063 50.2007C56.6911 48.0999 58.5373 51.6109 53.6924 51.252C38.9502 50.16 31.4658 18.5381 36.7601 18.5381C42.4289 26.4724 21.7041 58.6108 16.1475 51.252Z" stroke="black" stroke-width="1.66484" stroke-linecap="round" stroke-linejoin="round"/>
<path d="M25.9366 21.1686C26.1862 21.0274 26.4314 20.895 26.671 20.7717C29.2218 19.4599 30.3747 21.6524 27.3493 21.4283C26.8657 21.3924 26.3947 21.304 25.9366 21.1686C22.1135 23.3309 17.256 27.536 15.6611 31.8373C16.738 35.1107 17.2021 38.3704 16.7759 40.454C16.4227 42.1809 15.5969 40.3408 15.428 39.6453C14.9391 37.6321 14.8949 35.5663 15.2123 33.5259C15.2997 32.9643 15.4525 32.4 15.6611 31.8373C14.0653 26.9866 11.1238 22.106 7.73994 20.9793C6.15031 22.205 4.74758 22.545 3.9043 21.4283C5.21248 20.6568 6.50564 20.5683 7.73994 20.9793C10.8379 18.5905 14.6456 12.8375 16.4058 7.9468C15.4082 4.13333 15.4589 1 16.7759 1C17.7789 2.40382 17.4587 5.02103 16.4058 7.9468C17.7809 13.2037 21.1481 19.7531 25.9366 21.1686Z" fill="#FDD13B"/>
<path d="M1 21.4287C8.31483 17.1149 15.1598 34.1569 13.8716 40.4545C13.5184 42.1814 12.6926 40.3413 12.5237 39.6458C12.0348 37.6326 11.9906 35.5668 12.3081 33.5263C13.1069 28.3912 19.3774 23.0296 23.7667 20.7722C26.3175 19.4604 27.4704 21.6528 24.445 21.4287C15.2392 20.7468 10.5656 1.00049 13.8716 1.00049C17.4115 5.95506 4.46986 26.024 1 21.4287Z" stroke="black" stroke-width="1.66484" stroke-linecap="round" stroke-linejoin="round"/>
<path d="M346.624 230.928C347.023 230.701 347.416 230.489 347.8 230.292C351.884 228.191 353.731 231.702 348.886 231.343C348.111 231.286 347.357 231.144 346.624 230.928C340.501 234.39 332.722 241.124 330.168 248.013C331.893 253.254 332.636 258.475 331.953 261.811C331.388 264.577 330.065 261.63 329.795 260.516C329.012 257.292 328.941 253.984 329.45 250.717C329.59 249.817 329.834 248.914 330.168 248.013C327.613 240.244 322.902 232.429 317.483 230.624C314.938 232.587 312.691 233.132 311.341 231.343C313.436 230.108 315.507 229.966 317.483 230.624C322.444 226.799 328.542 217.586 331.361 209.754C329.763 203.647 329.845 198.629 331.953 198.629C333.56 200.877 333.047 205.069 331.361 209.754C333.563 218.173 338.955 228.661 346.624 230.928Z" fill="#FDD13B"/>
<path d="M306.689 231.343C318.403 224.435 329.365 251.726 327.302 261.811C326.736 264.577 325.414 261.63 325.144 260.516C324.361 257.292 324.29 253.984 324.798 250.717C326.077 242.493 336.119 233.907 343.148 230.292C347.233 228.191 349.079 231.702 344.234 231.343C329.492 230.251 322.008 198.629 327.302 198.629C332.971 206.564 312.246 238.702 306.689 231.343Z" stroke="black" stroke-width="1.66484" stroke-linecap="round" stroke-linejoin="round"/>
<path d="M311.29 128.946C311.54 128.805 311.785 128.672 312.025 128.549C314.575 127.237 315.728 129.43 312.703 129.206C312.219 129.17 311.748 129.081 311.29 128.946C307.467 131.108 302.61 135.313 301.015 139.615C302.092 142.888 302.556 146.148 302.129 148.231C301.776 149.958 300.95 148.118 300.782 147.423C300.293 145.409 300.248 143.344 300.566 141.303C300.653 140.742 300.806 140.177 301.015 139.615C299.419 134.764 296.477 129.883 293.093 128.757C291.504 129.982 290.101 130.322 289.258 129.206C290.566 128.434 291.859 128.346 293.093 128.757C296.191 126.368 299.999 120.615 301.759 115.724C300.762 111.911 300.812 108.777 302.129 108.777C303.132 110.181 302.812 112.798 301.759 115.724C303.134 120.981 306.502 127.53 311.29 128.946Z" fill="#FDD13B"/>
<path d="M286.354 129.207C293.668 124.893 300.513 141.935 299.225 148.232C298.872 149.959 298.046 148.119 297.877 147.424C297.388 145.41 297.344 143.345 297.662 141.304C298.46 136.169 304.731 130.807 309.12 128.55C311.671 127.238 312.824 129.431 309.798 129.207C300.593 128.525 295.919 108.778 299.225 108.778C302.765 113.733 289.823 133.802 286.354 129.207Z" stroke="black" stroke-width="1.66484" stroke-linecap="round" stroke-linejoin="round"/>
<ellipse cx="272.519" cy="78.2775" rx="4.39642" ry="4.23992" fill="#FFF6D5"/>
<path d="M266.614 77.8355C268.389 78.8498 272.805 82.3252 273.883 78.7701C274.602 76.3964 273.308 75.5914 271.079 75.2394C266.207 74.4701 264.52 76.7328 268.483 79.7047" stroke="black" stroke-width="1.66484" stroke-linecap="round"/>
<ellipse cx="326.176" cy="146.563" rx="4.39642" ry="4.23992" transform="rotate(94.0506 326.176 146.563)" fill="#FFF6D5"/>
<path d="M327.034 140.703C325.897 142.402 322.118 146.563 325.589 147.888C327.906 148.773 328.8 147.539 329.309 145.341C330.42 140.535 328.282 138.693 325.038 142.436" stroke="black" stroke-width="1.66484" stroke-linecap="round"/>
<ellipse cx="57.9062" cy="194.841" rx="4.39642" ry="4.23992" fill="#FFF6D5"/>
<path d="M55.4842 192.67C49.9951 202.899 62.4943 196.149 58.6514 192.306C55.9113 189.566 48.0076 195.707 54.5496 197.343" stroke="black" stroke-width="1.66484" stroke-linecap="round"/>
<path d="M133.224 89.3511C143.837 89.9692 147.408 90.1812 159.008 90.8627C165.177 91.2252 166.428 97.5542 159.008 97.2591C149.89 96.8966 141.945 96.4528 135.954 96.1073C126.051 96.1074 125.875 88.9201 133.224 89.3511Z" fill="#BEB9B9"/>
<path fill-rule="evenodd" clip-rule="evenodd" d="M151.692 89.2678C153.812 89.3925 156.197 89.5327 159.075 89.7019C162.445 89.8998 165.024 91.7887 165.261 94.1938C165.384 95.4525 164.806 96.6261 163.654 97.4005C162.545 98.1453 160.956 98.5005 158.961 98.4212C149.849 98.0589 141.909 97.6156 135.92 97.2703C133.329 97.2662 131.278 96.7955 129.783 96.0249C128.296 95.2585 127.257 94.1322 126.98 92.8049C126.691 91.415 127.303 90.1166 128.483 89.2773C129.629 88.4623 131.287 88.0727 133.291 88.1902M151.692 89.2678C145.269 88.8901 141.271 88.6549 133.291 88.1902L151.692 89.2678ZM151.555 91.5897C145.133 91.2119 141.134 90.9768 133.156 90.5121L133.155 90.5121C131.485 90.4142 130.409 90.7613 129.831 91.1727C129.287 91.5598 129.184 91.9774 129.257 92.3304C129.344 92.7461 129.746 93.3896 130.848 93.9574C131.935 94.5175 133.608 94.9444 135.953 94.9444L135.987 94.9444L136.02 94.9463C142.009 95.2917 149.946 95.735 159.053 96.0972C160.769 96.1654 161.806 95.8401 162.357 95.4699C162.864 95.1293 162.979 94.7533 162.946 94.4214C162.87 93.6452 161.739 92.1883 158.939 92.0238C156.06 91.8546 153.675 91.7144 151.555 91.5897Z" fill="black"/>
<path d="M172.804 98.2255C183.435 98.2589 187.012 98.2742 198.632 98.3167C204.812 98.3393 206.409 104.59 198.984 104.703C189.86 104.843 181.903 104.837 175.902 104.821C166.013 105.366 165.443 98.1993 172.804 98.2255Z" fill="#BEB9B9"/>
<path fill-rule="evenodd" clip-rule="evenodd" d="M191.239 97.127C193.363 97.1348 195.751 97.1437 198.635 97.1543C202.01 97.1666 204.69 98.9107 205.058 101.299C205.251 102.549 204.738 103.753 203.63 104.589C202.564 105.394 200.996 105.836 199 105.867C189.882 106.006 181.93 106 175.931 105.985C173.344 106.123 171.27 105.766 169.734 105.079C168.207 104.396 167.108 103.328 166.759 102.018C166.393 100.646 166.933 99.316 168.065 98.413C169.165 97.5362 170.799 97.056 172.806 97.0631M191.239 97.127C184.805 97.1031 180.799 97.0882 172.806 97.0631L191.239 97.127ZM191.23 99.4528C184.796 99.429 180.791 99.4141 172.799 99.389C171.126 99.383 170.071 99.7889 169.516 100.231C168.994 100.648 168.914 101.071 169.007 101.419C169.116 101.829 169.553 102.45 170.685 102.956C171.8 103.455 173.494 103.79 175.836 103.661L175.87 103.659L175.903 103.659C181.902 103.674 189.851 103.68 198.965 103.541C200.681 103.515 201.699 103.133 202.229 102.733C202.716 102.365 202.81 101.983 202.759 101.654C202.64 100.883 201.431 99.4904 198.627 99.4802C195.742 99.4696 193.354 99.4607 191.23 99.4528Z" fill="black"/>
</svg>
