<svg width="30" height="27" viewBox="0 0 30 27" fill="none" xmlns="http://www.w3.org/2000/svg">
<path d="M27.5452 4.94516e-05H18.6369C17.5581 4.94516e-05 16.6882 0.869942 16.6882 1.94874V8.16039C16.6882 9.23338 17.5581 10.1091 18.6369 10.1091H19.9302V12.1975C19.9302 12.423 20.0577 12.6261 20.2614 12.7248C20.342 12.7594 20.4232 12.7775 20.5102 12.7775C20.6435 12.7775 20.7713 12.7364 20.8757 12.6494L23.9496 10.109H27.5455C28.6243 10.109 29.5 9.23333 29.5 8.16034V1.94869C29.5 0.869892 28.624 0 27.5455 0L27.5452 4.94516e-05ZM26.2437 6.93199H19.9392C19.6185 6.93199 19.3592 6.6721 19.3592 6.35197C19.3592 6.03184 19.6185 5.77196 19.9392 5.77196H26.2437C26.5644 5.77196 26.8237 6.03184 26.8237 6.35197C26.8234 6.6721 26.5644 6.93199 26.2437 6.93199ZM26.2437 3.98214H19.9392C19.6185 3.98214 19.3592 3.72225 19.3592 3.40212C19.3592 3.08199 19.6185 2.8221 19.9392 2.8221H26.2437C26.5644 2.8221 26.8237 3.08199 26.8237 3.40212C26.8234 3.72225 26.5644 3.98214 26.2437 3.98214Z" fill="white"/>
<path d="M3.15676 21.7094C3.5738 24.273 5.80101 26.2328 8.47468 26.2328H15.2149C17.8943 26.2328 20.1215 24.273 20.5386 21.7094C22.024 21.6282 23.1951 20.3928 23.1951 18.8902C23.1951 18.131 22.9 17.4176 22.3662 16.89C21.8726 16.397 21.2294 16.1068 20.5331 16.0663C20.1219 13.5085 17.8946 11.5481 15.2152 11.5481H12.561V10.318C13.5863 10.0581 14.3497 9.13321 14.3497 8.0258C14.3497 6.72141 13.2889 5.66064 11.9845 5.66064C10.6766 5.66064 9.61293 6.72141 9.61293 8.0258C9.61293 9.13112 10.3763 10.0545 11.401 10.3162V11.5481H8.47505C5.80138 11.5481 3.5742 13.5084 3.16235 16.0663C2.46621 16.1012 1.82302 16.3911 1.32363 16.8899C0.790172 17.4234 0.5 18.1311 0.5 18.8901C0.499709 20.3982 1.67781 21.6339 3.15676 21.7093V21.7094ZM10.7724 8.02625C10.7724 7.36155 11.3163 6.8211 11.984 6.8211C12.6487 6.8211 13.1891 7.36153 13.1891 8.02625C13.1891 8.69445 12.6487 9.23781 11.984 9.23781C11.3164 9.23781 10.7724 8.69446 10.7724 8.02625ZM5.49145 16.936C5.49145 15.2905 6.83019 13.9515 8.47565 13.9515H15.2158C16.8613 13.9515 18.2003 15.2908 18.2003 16.936V20.8439C18.2003 22.4894 16.861 23.8286 15.2158 23.8286H8.47565C6.83019 23.8286 5.49145 22.4893 5.49145 20.8439V16.936Z" fill="white"/>
<path d="M8.83675 18.4932C9.38999 18.4932 9.83493 18.0427 9.83493 17.4955C9.83493 16.9423 9.39024 16.4973 8.83675 16.4973C8.28991 16.4973 7.84497 16.9423 7.84497 17.4955C7.84497 18.0423 8.28995 18.4932 8.83675 18.4932Z" fill="white"/>
<path d="M11.9809 21.0388C12.8103 21.0388 13.5533 20.5447 13.874 19.7813C13.998 19.4862 13.8595 19.1457 13.5638 19.0221C13.2698 18.8981 12.9282 19.036 12.8045 19.3323C12.6654 19.6641 12.3424 19.8785 11.9809 19.8785C11.6194 19.8785 11.2964 19.6641 11.1573 19.3323C11.0333 19.036 10.691 18.899 10.398 19.0221C10.1023 19.1457 9.9635 19.486 10.0878 19.7813C10.4088 20.5447 11.1515 21.0388 11.9809 21.0388Z" fill="white"/>
<path d="M14.8485 18.4932C15.4017 18.4932 15.8467 18.0427 15.8467 17.4955C15.8467 16.9423 15.402 16.4973 14.8485 16.4973C14.3016 16.4973 13.8567 16.9423 13.8567 17.4955C13.8567 18.0423 14.3017 18.4932 14.8485 18.4932Z" fill="white"/>
</svg>
