<svg viewBox="0 0 16 16" fill="none" xmlns="http://www.w3.org/2000/svg"><path fill-opacity=".3" d="m15.53 6.952-2.018-.246a5.086 5.086 0 0 0-.565-1.249l1.237-1.482a.219.219 0 0 0-.022-.306L12.725 2.35a.27.27 0 0 0-.334-.02l-1.618 1.134a6.108 6.108 0 0 0-1.361-.518l-.27-1.85C9.127.983 9.019.897 8.892.897H6.858c-.127 0-.235.086-.251.202l-.27 1.85c-.481.12-.938.294-1.361.517L3.359 2.33a.27.27 0 0 0-.334.02L1.588 3.668a.219.219 0 0 0-.022.306l1.236 1.483a5.085 5.085 0 0 0-.564 1.248L.22 6.952c-.126.016-.22.114-.22.23v1.864c0 .117.094.215.22.23l2.017.247c.132.442.323.86.565 1.248l-1.237 1.483a.219.219 0 0 0 .022.306l1.437 1.317c.05.046.115.069.18.069a.266.266 0 0 0 .155-.048l1.617-1.134c.423.222.88.397 1.362.518l.269 1.849c.016.116.124.202.251.202h2.033c.127 0 .235-.086.251-.202l.27-1.85c.481-.12.938-.295 1.361-.517l1.618 1.134c.045.032.1.048.154.048.065 0 .13-.023.18-.068l1.437-1.318c.09-.082.1-.213.022-.306l-1.237-1.482c.243-.389.434-.807.565-1.248l2.017-.247c.127-.016.22-.114.22-.231V7.183c0-.117-.094-.215-.22-.23ZM7.874 10.21c-1.263 0-2.287-.938-2.287-2.096 0-1.157 1.024-2.095 2.287-2.095 1.262 0 2.286.938 2.286 2.095 0 1.158-1.024 2.096-2.286 2.096Z" fill="#0278D5"/></svg>