<svg viewBox="0 0 16 16" xmlns="http://www.w3.org/2000/svg"><g clip-path="url(#a)"><path fill="#fff" d="M0 0h16v16H0z"/><path d="M0 13.46h2.043V.666H0v12.792Zm4.085 0h2.043V4.456H4.085v9.002ZM8.17 8.247v5.211h2.043V8.248H8.17Z" fill="#0278D5" opacity=".3"/><g clip-path="url(#b)"><path d="m15.364 14.58-2.149-1.994a4.302 4.302 0 0 0 .818-2.513c0-2.516-2.206-4.563-4.917-4.563s-4.917 2.047-4.917 4.563c0 2.515 2.206 4.562 4.917 4.562 1 0 1.931-.28 2.709-.759l2.148 1.994a.518.518 0 0 0 .695 0l.696-.645a.433.433 0 0 0 0-.645ZM5.182 10.073c0-2.013 1.765-3.65 3.934-3.65 2.169 0 3.934 1.637 3.934 3.65 0 2.012-1.765 3.65-3.934 3.65-2.169 0-3.934-1.638-3.934-3.65Z" fill="#0278D5"/></g><path d="M12.758.666h-.945v4.096h.945V.666Z" fill="#0278D5"/><path d="M14.333 3.055V2.032h-4.095v1.023h4.095Z" fill="#0278D5"/></g><defs><clipPath id="a"><path fill="#fff" d="M0 0h16v16H0z"/></clipPath><clipPath id="b"><path fill="#fff" transform="translate(4.199 5.51)" d="M0 0h11.801v10.95H0z"/></clipPath></defs></svg>