<svg viewBox="0 0 16 16" xmlns="http://www.w3.org/2000/svg"><g clip-path="url(#a)"><path fill="#fff" d="M0 0h16v16H0z"/><path d="M0 13.459h2.043V.667H0v12.792Zm4.085 0h2.043V4.457H4.085v9.002ZM8.17 8.247v5.212h2.043V8.247H8.17Z" fill="#0278D5" opacity=".3"/><g clip-path="url(#b)"><path d="m15.364 14.58-2.149-1.995a4.302 4.302 0 0 0 .818-2.513c0-2.516-2.206-4.562-4.917-4.562s-4.917 2.046-4.917 4.562c0 2.516 2.206 4.563 4.917 4.563 1 0 1.931-.28 2.709-.76l2.148 1.995a.518.518 0 0 0 .695 0l.696-.646a.433.433 0 0 0 0-.645ZM5.182 10.071c0-2.012 1.765-3.65 3.934-3.65 2.169 0 3.934 1.638 3.934 3.65 0 2.013-1.765 3.65-3.934 3.65-2.169 0-3.934-1.637-3.934-3.65Z" fill="#0278D5"/></g></g><defs><clipPath id="a"><path fill="#fff" d="M0 0h16v16H0z"/></clipPath><clipPath id="b"><path fill="#fff" transform="translate(4.199 5.51)" d="M0 0h11.801v10.95H0z"/></clipPath></defs></svg>