<svg width="29" height="28" viewBox="0 0 29 28" fill="none" xmlns="http://www.w3.org/2000/svg">
<rect x="0.357422" width="28" height="28" rx="5" fill="#FFF1F7"/>
<g clip-path="url(#clip0_1313_277899)">
<path d="M20.0437 13.9283C19.6074 13.9281 19.1833 14.0721 18.8373 14.3379L15.4837 12.0339C15.792 11.4759 15.9312 10.8401 15.8842 10.2042C15.8372 9.56838 15.606 8.95997 15.219 8.4533C14.832 7.94662 14.3058 7.5636 13.7047 7.35099C13.1036 7.13839 12.4536 7.10541 11.8341 7.25607C11.2146 7.40673 10.6523 7.73452 10.216 8.19941C9.77964 8.66431 9.48811 9.24619 9.37697 9.87401C9.26584 10.5018 9.33991 11.1484 9.59015 11.7349C9.84038 12.3213 10.256 12.8222 10.7861 13.1763L9.80052 15.6563C9.64544 15.6269 9.48797 15.6119 9.33012 15.6115C8.69547 15.6086 8.08065 15.8325 7.5965 16.2429C7.11235 16.6532 6.79071 17.223 6.68956 17.8496C6.5884 18.4761 6.7144 19.1182 7.04483 19.6601C7.37525 20.2019 7.88838 20.6079 8.4917 20.8049C9.09503 21.0018 9.74886 20.9768 10.3354 20.7342C10.9218 20.4917 11.4024 20.0476 11.6904 19.4821C11.9784 18.9165 12.0549 18.2667 11.9061 17.6497C11.7573 17.0328 11.393 16.4892 10.8789 16.1171L11.8613 13.6435C12.1079 13.7011 12.3601 13.7311 12.6133 13.7331C13.3955 13.7335 14.1518 13.453 14.7445 12.9427L18.1557 15.2883C18.0882 15.495 18.0536 15.711 18.0533 15.9283C18.0533 16.3228 18.1703 16.7083 18.3895 17.0363C18.6087 17.3642 18.9203 17.6197 19.2847 17.7705C19.6492 17.9213 20.0502 17.9606 20.437 17.8834C20.8238 17.8062 21.1791 17.616 21.4577 17.3369C21.7364 17.0578 21.926 16.7022 22.0026 16.3153C22.0792 15.9284 22.0392 15.5274 21.8878 15.1632C21.7365 14.799 21.4804 14.4878 21.1522 14.2692C20.8239 14.0505 20.4382 13.9341 20.0437 13.9347V13.9283Z" fill="#9A0041"/>
</g>
<defs>
<clipPath id="clip0_1313_277899">
<rect width="16" height="14.08" fill="white" transform="translate(6.35742 7)"/>
</clipPath>
</defs>
</svg>
