<svg width="28" height="28" viewBox="0 0 28 28" fill="none" xmlns="http://www.w3.org/2000/svg">
<rect width="28" height="28" rx="5" fill="#FFF1F7"/>
<path fill-rule="evenodd" clip-rule="evenodd" d="M12.2091 5.60813C12.2091 5.13697 12.5911 4.75502 13.0622 4.75502H14.7685C15.2396 4.75502 15.6216 5.13697 15.6216 5.60813V7.59965C16.1662 7.74633 16.6825 7.96144 17.1605 8.23505L18.5776 6.82392C18.9105 6.49245 19.4487 6.49245 19.7815 6.82392L20.9905 8.02786C21.3254 8.36131 21.3254 8.90343 20.9905 9.23688L19.5773 10.6442C19.8498 11.1175 20.0644 11.6285 20.2113 12.1674H22.2123C22.6835 12.1674 23.0654 12.5493 23.0654 13.0205V14.7267C23.0654 15.1978 22.6835 15.5798 22.2123 15.5798H20.2112C20.064 16.1196 19.8489 16.6314 19.5757 17.1054L20.9877 18.512C21.3224 18.8454 21.3224 19.3874 20.9877 19.7208L19.7789 20.9249C19.446 21.2565 18.9076 21.2565 18.5748 20.9249L17.1577 19.5134C16.6804 19.7862 16.1651 20.0007 15.6216 20.1471V22.1388C15.6216 22.6099 15.2396 22.9919 14.7685 22.9919H13.0622C12.5911 22.9919 12.2091 22.6099 12.2091 22.1388V20.1473C11.665 20.0008 11.1491 19.786 10.6713 19.5128L9.25491 20.9232C8.92204 21.2547 8.38384 21.2547 8.05097 20.9232L6.84196 19.7193C6.50711 19.3859 6.50711 18.8437 6.84196 18.5103L8.25381 17.1044C7.98084 16.6307 7.76592 16.1192 7.61891 15.5798H5.61922C5.14806 15.5798 4.76611 15.1978 4.76611 14.7267V13.0205C4.76611 12.5493 5.14806 12.1674 5.61922 12.1674H7.61881C7.7657 11.6282 7.98043 11.117 8.25315 10.6436L6.84087 9.23679C6.50614 8.90336 6.50614 8.36138 6.84087 8.02795L8.0497 6.82383C8.38259 6.49224 8.92093 6.49224 9.25382 6.82383L10.6702 8.23468C11.1482 7.96114 11.6645 7.7461 12.2091 7.59948V5.60813ZM13.3466 5.8925V7.8168C13.3466 8.23071 13.0545 8.56626 12.6777 8.65438C12.1055 8.78821 11.5684 9.01297 11.0824 9.31268C10.7544 9.51503 10.3127 9.48405 10.0207 9.1932L8.65176 7.82963L7.84588 8.63237L9.21019 9.99136C9.50399 10.284 9.53508 10.7288 9.33053 11.058C9.03126 11.5397 8.8067 12.0717 8.67255 12.6382C8.58361 13.0137 8.2486 13.3048 7.83543 13.3048H5.90359V14.4423H7.83552C8.24867 14.4423 8.58366 14.7334 8.67262 15.1089C8.80688 15.6757 9.03162 16.2079 9.33114 16.6897C9.53582 17.019 9.50475 17.464 9.21081 17.7567L7.84694 19.1148L8.65294 19.9174L10.0219 18.5542C10.3139 18.2635 10.7554 18.2325 11.0834 18.4347C11.5691 18.7341 12.1059 18.9587 12.6777 19.0924C13.0545 19.1805 13.3466 19.5161 13.3466 19.93V21.8544H14.4841V19.9298C14.4841 19.516 14.7762 19.1804 15.1529 19.0923C15.7242 18.9586 16.2605 18.7343 16.7458 18.4352C17.0738 18.2331 17.5154 18.2641 17.8073 18.5549L19.1768 19.9191L19.9827 19.1164L18.6186 17.7575C18.3247 17.4648 18.2937 17.0198 18.4984 16.6906C18.7982 16.2085 19.0231 15.676 19.1574 15.1089C19.2464 14.7334 19.5814 14.4423 19.9945 14.4423H21.928V13.3048H19.9946C19.5815 13.3048 19.2465 13.0137 19.1575 12.6382C19.0234 12.0719 18.799 11.5401 18.4999 11.0585C18.2953 10.7293 18.3265 10.2845 18.6203 9.99187L19.9856 8.63237L19.1796 7.82975L17.8099 9.19366C17.5179 9.48446 17.0762 9.51539 16.7481 9.313C16.2622 9.01322 15.7251 8.7884 15.1529 8.6545C14.7762 8.56635 14.4841 8.23082 14.4841 7.81694V5.8925H13.3466ZM14.0215 11.298C12.5295 11.298 11.32 12.5075 11.32 13.9995C11.32 15.4916 12.5295 16.7011 14.0215 16.7011C15.5135 16.7011 16.723 15.4916 16.723 13.9995C16.723 12.5075 15.5135 11.298 14.0215 11.298ZM10.1825 13.9995C10.1825 11.8793 11.9013 10.1606 14.0215 10.1606C16.1417 10.1606 17.8605 11.8793 17.8605 13.9995C17.8605 16.1198 16.1417 17.8385 14.0215 17.8385C11.9013 17.8385 10.1825 16.1198 10.1825 13.9995Z" fill="#9A0041"/>
</svg>
