<svg width="469" height="73" viewBox="0 0 469 73" fill="none" xmlns="http://www.w3.org/2000/svg"><path d="M156.701 54.74c0 .12-.06.216-.18.288a1.261 1.261 0 0 1-.36.18c-.12.048-.252.108-.396.18a.82.82 0 0 0-.324.18l.252 1.692c.144.936.264 1.848.36 2.736.12.888.18 1.728.18 2.52 0 .624-.072 1.188-.216 1.692-.12.48-.348.72-.684.72-.168 0-.324-.204-.468-.612-.12-.432-.228-.912-.324-1.44a41.766 41.766 0 0 1-.18-1.62 31.13 31.13 0 0 1-.036-1.188 21.828 21.828 0 0 0-.144-1.98 54.989 54.989 0 0 0-.144-1.188l-.108-.864c-.408.024-.96.084-1.656.18-.696.072-1.548.24-2.556.504v.432c0 .528.024 1.116.072 1.764.048.624.096 1.272.144 1.944.072.648.132 1.308.18 1.98.048.648.072 1.272.072 1.872 0 .24-.024.432-.072.576-.048.168-.156.252-.324.252-.288 0-.516-.144-.684-.432a3.825 3.825 0 0 1-.324-1.008 19.89 19.89 0 0 1-.18-1.26 40.368 40.368 0 0 0-.072-1.08 34.069 34.069 0 0 1-.252-2.16l-.144-2.556c-.096 0-.216-.024-.36-.072l-.432-.216a2.36 2.36 0 0 1-.36-.288.448.448 0 0 1-.144-.324c0-.288.132-.516.396-.684a3.75 3.75 0 0 1 .864-.468 6.2 6.2 0 0 1-.036-.684V47.864a79.64 79.64 0 0 0 .036-2.412c.024-.192.084-.42.18-.684.096-.288.252-.432.468-.432.168 0 .312.072.432.216.12.12.216.276.288.468.072.192.12.396.144.612.048.192.072.36.072.504v8.604c.216 0 .504-.012.864-.036l1.116-.072c.384-.048.756-.096 1.116-.144.384-.048.696-.096.936-.144l-.828-7.56a31.156 31.156 0 0 1-.072-.54v-.468c0-.48.06-.864.18-1.152.144-.312.348-.468.612-.468.336 0 .54.156.612.468.072.312.12.768.144 1.368l.072 1.152c.024.36.06.72.108 1.08l.828 6.084c.288 0 .576.024.864.072.312.024.468.144.468.36Zm20.298 2.772c0 .432-.204.972-.612 1.62-.384.624-.912 1.236-1.584 1.836-.672.6-1.452 1.116-2.34 1.548a6.567 6.567 0 0 1-2.772.612c-.432 0-.888-.072-1.368-.216a6.56 6.56 0 0 1-1.404-.612 6.227 6.227 0 0 1-1.224-1.008 3.927 3.927 0 0 1-.792-1.368c-.144.144-.324.384-.54.72-.192.336-.408.684-.648 1.044-.24.336-.504.636-.792.9-.288.24-.588.36-.9.36-.312 0-.576-.156-.792-.468a5.439 5.439 0 0 1-.468-1.08 7.715 7.715 0 0 1-.252-1.152 9.624 9.624 0 0 1-.072-.612c0-.288.084-.828.252-1.62a15.7 15.7 0 0 1 .756-2.52 9.636 9.636 0 0 1 1.26-2.304c.528-.672 1.14-1.008 1.836-1.008.264 0 .432.12.504.36.096.216.144.432.144.648v1.08c.12.096.24.168.36.216a.813.813 0 0 1 .36.144c.12.048.204.132.252.252.072.12.108.312.108.576 0 .168-.012.324-.036.468-.024.12-.036.24-.036.36 0 .624.048 1.236.144 1.836.096.6.288 1.14.576 1.62.288.456.684.84 1.188 1.152.504.288 1.176.432 2.016.432 1.056 0 1.944-.216 2.664-.648.744-.456 1.356-.948 1.836-1.476.504-.552.9-1.044 1.188-1.476.288-.456.528-.684.72-.684.312 0 .468.156.468.468Zm-12.636-1.584a.444.444 0 0 0-.072-.252.58.58 0 0 1-.072-.252c0-.096.024-.18.072-.252a.512.512 0 0 0 .072-.288c0-.072-.024-.12-.072-.144-.048-.048-.072-.096-.072-.144-.216.048-.444.252-.684.612-.216.36-.432.78-.648 1.26-.192.48-.348.972-.468 1.476-.12.48-.18.876-.18 1.188 0 .168.048.444.144.828.096.384.204.636.324.756.408-.84.78-1.656 1.116-2.448.36-.792.54-1.572.54-2.34Zm21.575-1.908a.545.545 0 0 1-.216.432c-.144.096-.312.18-.504.252a5.303 5.303 0 0 1-.576.18 3.938 3.938 0 0 1-.468.036c-.36 0-.6-.024-.72-.072a.83.83 0 0 0-.288-.072c-.6 0-1.08.048-1.44.144-.36.096-.648.252-.864.468a1.781 1.781 0 0 0-.396.828 7.752 7.752 0 0 0-.072 1.152c0 .768.024 1.38.072 1.836.072.456.132.828.18 1.116.072.288.132.516.18.684a.959.959 0 0 1 .108.432c0 .192-.108.396-.324.612-.192.216-.372.324-.54.324-.288 0-.552-.252-.792-.756a12.821 12.821 0 0 1-.576-1.836 35.72 35.72 0 0 1-.36-2.124c-.096-.696-.144-1.224-.144-1.584 0-.408.036-.792.108-1.152.072-.384.168-.708.288-.972a2.57 2.57 0 0 1 .396-.684c.144-.168.288-.252.432-.252.12 0 .216.048.288.144a.845.845 0 0 1 .18.288l.144.288a.345.345 0 0 0 .252.108c.216 0 .564-.108 1.044-.324.48-.216 1.068-.324 1.764-.324.648 0 1.128.024 1.44.072.336.024.66.096.972.216a.71.71 0 0 1 .252.18c.12.072.18.192.18.36Zm13.695 6.552a.774.774 0 0 1-.144.432 1.857 1.857 0 0 1-.36.396c-.12.12-.264.228-.432.324a.896.896 0 0 1-.396.108c-.408 0-.936-.084-1.584-.252-.624-.192-1.128-.48-1.512-.864a6.644 6.644 0 0 1-1.08-1.44c-.312-.576-.66-1.416-1.044-2.52a36.05 36.05 0 0 1-.936 3.132 7.969 7.969 0 0 1-1.656 2.844c-.048.048-.12.072-.216.072-.168 0-.348-.084-.54-.252-.192-.168-.288-.336-.288-.504 0-.168-.024-.552-.072-1.152a79.546 79.546 0 0 0-.108-2.052l-.144-2.304a66.687 66.687 0 0 1-.036-1.944c0-.24.012-.552.036-.936a3.21 3.21 0 0 1 .216-1.044c.024-.048.108-.144.252-.288a.816.816 0 0 1 .54-.216c.168 0 .264.108.288.324.024.216.036.456.036.72v5.688c0 .12.012.288.036.504.048.216.108.372.18.468.264-.576.504-1.248.72-2.016.24-.792.468-1.536.684-2.232.216-.72.432-1.32.648-1.8.216-.504.432-.756.648-.756.24 0 .432.048.576.144.144.096.264.288.36.576.12.696.216 1.32.288 1.872.072.528.156 1.008.252 1.44.12.432.276.84.468 1.224.216.36.504.696.864 1.008.336.312.708.54 1.116.684.432.144.804.216 1.116.216.144 0 .3-.024.468-.072.168-.072.288-.108.36-.108.096 0 .18.084.252.252.096.168.144.276.144.324Zm11.864.648c.024.048.036.12.036.216 0 .144-.108.36-.324.648a4.08 4.08 0 0 1-.468.468 4.86 4.86 0 0 1-.972.648 7.686 7.686 0 0 1-1.512.576c-.576.168-1.26.252-2.052.252-.552 0-1.092-.12-1.62-.36a4.443 4.443 0 0 1-1.404-1.116c-.408-.504-.744-1.116-1.008-1.836-.264-.744-.396-1.608-.396-2.592 0-.936.12-1.812.36-2.628.24-.816.54-1.536.9-2.16.384-.624.804-1.116 1.26-1.476.456-.36.9-.54 1.332-.54.384 0 .768.084 1.152.252.408.144.768.336 1.08.576.336.24.6.516.792.828a1.6 1.6 0 0 1 .288.9c0 .36-.168.732-.504 1.116a6.243 6.243 0 0 1-1.152 1.08c-.456.312-.912.576-1.368.792-.456.192-.816.288-1.08.288a.55.55 0 0 1-.396-.18.887.887 0 0 1-.144-.504c0-.336.144-.6.432-.792.312-.192.648-.36 1.008-.504.36-.168.684-.36.972-.576.312-.216.468-.516.468-.9 0-.048-.06-.168-.18-.36-.12-.192-.444-.288-.972-.288-.24 0-.516.144-.828.432-.312.264-.612.636-.9 1.116-.288.456-.528 1.008-.72 1.656a6.951 6.951 0 0 0-.288 2.052c0 .624.108 1.188.324 1.692.24.504.54.936.9 1.296.36.336.78.6 1.26.792.48.192.972.288 1.476.288.36 0 .744-.072 1.152-.216.432-.168.828-.336 1.188-.504.384-.192.708-.36.972-.504.288-.168.468-.252.54-.252.072 0 .144.036.216.108a.48.48 0 0 1 .18.216Zm10.643-.972c0 .408-.144.768-.432 1.08-.264.288-.612.54-1.044.756a7.035 7.035 0 0 1-1.368.468c-.504.12-.984.216-1.44.288-.456.048-.864.084-1.224.108h-.648c-.528 0-.936-.084-1.224-.252-.288-.168-.432-.468-.432-.9 0-.144.012-.264.036-.36.024-.12.12-.18.288-.18.072 0 .192.024.36.072.168.024.3.036.396.036.096 0 .396-.012.9-.036.528-.048 1.08-.12 1.656-.216a8.474 8.474 0 0 0 1.584-.396c.48-.192.72-.432.72-.72 0-.048-.252-.192-.756-.432a63.21 63.21 0 0 1-2.196-1.296c-.768-.48-1.308-.96-1.62-1.44-.312-.504-.468-1.176-.468-2.016 0-.528.108-.96.324-1.296.24-.336.552-.6.936-.792a4.785 4.785 0 0 1 1.368-.396 9.245 9.245 0 0 1 1.656-.144c.048 0 .192.024.432.072.264.048.54.132.828.252.288.096.54.228.756.396.24.144.36.312.36.504 0 .048-.048.12-.144.216-.072.096-.204.276-.396.54a6.34 6.34 0 0 0-.396-.108 7.937 7.937 0 0 0-.612-.144 3.146 3.146 0 0 0-.684-.144 3.097 3.097 0 0 0-.576-.072c-.624 0-1.128.12-1.512.36-.384.216-.576.648-.576 1.296 0 .312.12.6.36.864.264.264.588.516.972.756.384.216.792.444 1.224.684a9.08 9.08 0 0 1 1.26.72c.384.264.696.552.936.864.264.288.396.624.396 1.008Zm11.179 0c0 .408-.144.768-.432 1.08-.264.288-.612.54-1.044.756a7.035 7.035 0 0 1-1.368.468c-.504.12-.984.216-1.44.288-.456.048-.864.084-1.224.108h-.648c-.528 0-.936-.084-1.224-.252-.288-.168-.432-.468-.432-.9 0-.144.012-.264.036-.36.024-.12.12-.18.288-.18.072 0 .192.024.36.072.168.024.3.036.396.036.096 0 .396-.012.9-.036.528-.048 1.08-.12 1.656-.216a8.474 8.474 0 0 0 1.584-.396c.48-.192.72-.432.72-.72 0-.048-.252-.192-.756-.432a63.21 63.21 0 0 1-2.196-1.296c-.768-.48-1.308-.96-1.62-1.44-.312-.504-.468-1.176-.468-2.016 0-.528.108-.96.324-1.296.24-.336.552-.6.936-.792a4.785 4.785 0 0 1 1.368-.396 9.245 9.245 0 0 1 1.656-.144c.048 0 .192.024.432.072.264.048.54.132.828.252.288.096.54.228.756.396.24.144.36.312.36.504 0 .048-.048.12-.144.216-.072.096-.204.276-.396.54a6.34 6.34 0 0 0-.396-.108 7.937 7.937 0 0 0-.612-.144 3.146 3.146 0 0 0-.684-.144 3.097 3.097 0 0 0-.576-.072c-.624 0-1.128.12-1.512.36-.384.216-.576.648-.576 1.296 0 .312.12.6.36.864.264.264.588.516.972.756.384.216.792.444 1.224.684a9.08 9.08 0 0 1 1.26.72c.384.264.696.552.936.864.264.288.396.624.396 1.008Zm32.35-3.672c0 .48-.036.936-.108 1.368-.048.432-.18.876-.396 1.332-.192.432-.468.9-.828 1.404a21.37 21.37 0 0 1-1.404 1.728 12.07 12.07 0 0 1-2.448 2.052c-.936.6-1.98.9-3.132.9-.72 0-1.44-.12-2.16-.36-.696-.24-1.32-.6-1.872-1.08-.528-.48-.96-1.08-1.296-1.8-.336-.72-.504-1.56-.504-2.52 0-1.536.288-3.144.864-4.824.576-1.704 1.38-3.528 2.412-5.472a71.359 71.359 0 0 1 1.872-3.348c.576-.984 1.14-1.8 1.692-2.448.552-.672 1.104-1.176 1.656-1.512a3.336 3.336 0 0 1 1.764-.504c.48 0 .888.096 1.224.288.36.168.54.516.54 1.044 0 .168-.036.324-.108.468a.354.354 0 0 1-.324.18c-.192 0-.336-.048-.432-.144-.072-.12-.3-.18-.684-.18-.648 0-1.284.3-1.908.9-.624.6-1.212 1.296-1.764 2.088a23.692 23.692 0 0 0-1.404 2.304c-.384.768-.66 1.332-.828 1.692a74.11 74.11 0 0 0-.972 2.124c-.336.816-.66 1.656-.972 2.52a30.132 30.132 0 0 0-.792 2.52c-.216.792-.324 1.452-.324 1.98 0 .672.108 1.272.324 1.8.24.504.552.936.936 1.296s.828.636 1.332.828c.528.168 1.08.252 1.656.252.792 0 1.596-.192 2.412-.576a7.964 7.964 0 0 0 2.232-1.512 7.506 7.506 0 0 0 1.62-2.16c.432-.816.648-1.644.648-2.484 0-.84-.216-1.536-.648-2.088-.432-.552-.912-.828-1.44-.828-.336 0-.576.06-.72.18a1.97 1.97 0 0 0-.36.396 5.76 5.76 0 0 1-.468.648c-.144.168-.396.312-.756.432-.576.192-1.032.336-1.368.432-.312.072-.54.132-.684.18l-.288.072c-.144 0-.348-.096-.612-.288-.24-.216-.36-.384-.36-.504 0-.432.252-.84.756-1.224a9.89 9.89 0 0 1 1.764-1.08c.648-.336 1.272-.6 1.872-.792.6-.192.972-.288 1.116-.288.72 0 1.308.144 1.764.432.48.288.852.66 1.116 1.116.288.456.492.96.612 1.512.12.528.18 1.044.18 1.548Zm4.67-8.136c0 .048-.084.144-.252.288-.168.144-.372.3-.612.468a6.355 6.355 0 0 1-.684.396c-.24.12-.432.18-.576.18h-.396a2.06 2.06 0 0 1-.468-.144 1.52 1.52 0 0 1-.396-.288.815.815 0 0 1-.18-.54c0-.336.12-.648.36-.936.24-.312.552-.468.936-.468.072 0 .228.036.468.108.264.048.528.12.792.216s.492.204.684.324c.216.12.324.252.324.396Zm1.188 13.464c0 .168-.132.312-.396.432-.24.12-.42.18-.54.18-.24 0-.456-.156-.648-.468a5.636 5.636 0 0 1-.504-1.08 15.4 15.4 0 0 1-.36-1.152 12.68 12.68 0 0 0-.216-.792c-.072-.24-.168-.528-.288-.864-.12-.336-.24-.66-.36-.972l-.252-.828a3.683 3.683 0 0 1-.108-.396c0-.336.06-.648.18-.936.144-.288.312-.432.504-.432.216 0 .444.168.684.504.24.336.468.768.684 1.296.24.504.456 1.068.648 1.692.192.6.36 1.176.504 1.728.144.528.252.996.324 1.404.096.384.144.612.144.684Zm11.818-13.176c-.312.36-.756.72-1.332 1.08-.576.336-1.152.648-1.728.936l-1.512.756c-.432.192-.648.324-.648.396 0 .072.048.288.144.648.096.36.204.792.324 1.296.144.48.288.984.432 1.512.144.528.264.996.36 1.404.048.24.108.552.18.936s.132.768.18 1.152c.072.384.132.732.18 1.044.048.288.072.444.072.468 0 .36-.06.732-.18 1.116-.12.384-.312.576-.576.576a.55.55 0 0 1-.396-.18 2.59 2.59 0 0 1-.324-.396 2.638 2.638 0 0 1-.216-.468 1.143 1.143 0 0 1-.072-.324v-.216c.024-.096.036-.204.036-.324 0-.456-.072-1.116-.216-1.98a18.558 18.558 0 0 0-.288-1.224c-.144-.552-.288-1.116-.432-1.692-.168-.672-.36-1.404-.576-2.196-.096-.336-.156-.504-.18-.504-.168 0-.456.108-.864.324-.384.192-.828.444-1.332.756-.504.288-1.032.612-1.584.972a61.95 61.95 0 0 0-1.548.972c-.48.288-.888.54-1.224.756-.36.192-.576.288-.648.288a.963.963 0 0 1-.756-.324 1.058 1.058 0 0 1-.288-.72c0-.144.204-.348.612-.612.384-.288.876-.6 1.476-.936a43.081 43.081 0 0 1 1.908-1.044 75.3 75.3 0 0 1 1.872-.972c.6-.288 1.092-.528 1.476-.72l.612-.288a108.198 108.198 0 0 1-.54-2.952c-.12-.744-.24-1.428-.36-2.052-.096-.624-.144-.96-.144-1.008 0-.312.06-.54.18-.684.144-.168.3-.252.468-.252.264 0 .432.18.504.54.264 1.296.504 2.448.72 3.456.24 1.008.468 1.824.684 2.448.216-.048.588-.18 1.116-.396l1.656-.756a54.797 54.797 0 0 1 1.548-.684c.48-.216.756-.324.828-.324.144 0 .228.048.252.144.048.096.096.18.144.252Zm13.476 6.984c.048.312.072.564.072.756.024.192.036.384.036.576 0 .6-.084 1.308-.252 2.124a8.17 8.17 0 0 1-.792 2.34 5.869 5.869 0 0 1-1.476 1.872c-.6.504-1.368.756-2.304.756-.864 0-1.68-.24-2.448-.72a8.56 8.56 0 0 1-2.052-1.908c-.6-.792-1.08-1.668-1.44-2.628a8.984 8.984 0 0 1-.504-2.916c0-1.392.084-2.58.252-3.564.192-1.008.456-1.884.792-2.628 0-.072-.048-.144-.144-.216a.39.39 0 0 1-.108-.288c0-.12.108-.276.324-.468.24-.192.516-.372.828-.54.336-.192.66-.348.972-.468.336-.144.588-.216.756-.216.096 0 .252.048.468.144.24.096.54.144.9.144.12 0 .24-.012.36-.036.12-.024.252-.036.396-.036.504 0 1.044.24 1.62.72.6.456 1.152 1.056 1.656 1.8.528.744.972 1.596 1.332 2.556.384.936.636 1.884.756 2.844Zm-1.44 1.404c0-.456-.096-1.104-.288-1.944a12.033 12.033 0 0 0-.864-2.52 8.823 8.823 0 0 0-1.404-2.196c-.528-.624-1.128-.936-1.8-.936h-.288a2.236 2.236 0 0 0-.432-.036 3.323 3.323 0 0 0-.468-.036 2.771 2.771 0 0 0-.252-.036c-.384 0-.72.18-1.008.54-.264.36-.492.828-.684 1.404-.168.576-.3 1.236-.396 1.98a17.424 17.424 0 0 0-.144 2.232c0 .264.072.78.216 1.548.144.744.396 1.524.756 2.34a7.79 7.79 0 0 0 1.512 2.124c.624.624 1.416.936 2.376.936.648 0 1.176-.192 1.584-.576.408-.408.72-.9.936-1.476.24-.576.408-1.164.504-1.764a10.7 10.7 0 0 0 .144-1.584Zm15.996-2.52c0 .624-.18 1.224-.54 1.8a7.971 7.971 0 0 1-1.26 1.62c-.504.48-1.056.936-1.656 1.368-.6.408-1.152.768-1.656 1.08-.48.336-.876.612-1.188.828-.312.216-.468.384-.468.504 0 .312.036.756.108 1.332.072.552.156 1.164.252 1.836.12.648.228 1.32.324 2.016.12.696.204 1.332.252 1.908 0 .024.012.132.036.324.048.192.096.408.144.648.072.24.12.456.144.648.048.216.072.348.072.396 0 .168-.012.348-.036.54 0 .216-.036.408-.108.576a.982.982 0 0 1-.252.468.633.633 0 0 1-.468.18.602.602 0 0 1-.576-.36 1.324 1.324 0 0 1-.18-.648v-.144a.4.4 0 0 0 .036-.18c0-.264-.096-.972-.288-2.124a251.765 251.765 0 0 1-.648-4.14c-.24-1.584-.456-3.288-.648-5.112a50.648 50.648 0 0 1-.288-5.22c0-.12.012-.252.036-.396.024-.168.036-.312.036-.432-.24.024-.6.132-1.08.324a9.389 9.389 0 0 0-1.368.72 7.924 7.924 0 0 0-1.224.864c-.336.288-.504.552-.504.792h-.252c-.072 0-.156-.048-.252-.144a1.218 1.218 0 0 1-.288-.324c-.096-.12-.18-.24-.252-.36-.072-.12-.108-.204-.108-.252 0-.504.3-.972.9-1.404.6-.456 1.344-.852 2.232-1.188.912-.36 1.908-.636 2.988-.828 1.08-.216 2.1-.324 3.06-.324.936 0 1.716.108 2.34.324.648.216 1.164.48 1.548.792.384.288.66.588.828.9.168.312.252.576.252.792Zm-1.764-.108c0-.24-.3-.48-.9-.72-.6-.264-1.308-.396-2.124-.396-.72 0-1.248.024-1.584.072-.336.048-.564.096-.684.144-.048.384-.084.84-.108 1.368a38.96 38.96 0 0 0 0 3.312c.048.528.096.972.144 1.332.336-.216.792-.504 1.368-.864.6-.384 1.188-.804 1.764-1.26.576-.48 1.068-.972 1.476-1.476.432-.528.648-1.032.648-1.512Zm11.878 5.76c0 .408-.144.768-.432 1.08-.264.288-.612.54-1.044.756a7.035 7.035 0 0 1-1.368.468c-.504.12-.984.216-1.44.288-.456.048-.864.084-1.224.108h-.648c-.528 0-.936-.084-1.224-.252-.288-.168-.432-.468-.432-.9 0-.144.012-.264.036-.36.024-.12.12-.18.288-.18.072 0 .192.024.36.072.168.024.3.036.396.036.096 0 .396-.012.9-.036.528-.048 1.08-.12 1.656-.216a8.474 8.474 0 0 0 1.584-.396c.48-.192.72-.432.72-.72 0-.048-.252-.192-.756-.432a63.21 63.21 0 0 1-2.196-1.296c-.768-.48-1.308-.96-1.62-1.44-.312-.504-.468-1.176-.468-2.016 0-.528.108-.96.324-1.296.24-.336.552-.6.936-.792a4.785 4.785 0 0 1 1.368-.396 9.245 9.245 0 0 1 1.656-.144c.048 0 .192.024.432.072.264.048.54.132.828.252.288.096.54.228.756.396.24.144.36.312.36.504 0 .048-.048.12-.144.216-.072.096-.204.276-.396.54a6.34 6.34 0 0 0-.396-.108 7.937 7.937 0 0 0-.612-.144 3.146 3.146 0 0 0-.684-.144 3.097 3.097 0 0 0-.576-.072c-.624 0-1.128.12-1.512.36-.384.216-.576.648-.576 1.296 0 .312.12.6.36.864.264.264.588.516.972.756.384.216.792.444 1.224.684a9.08 9.08 0 0 1 1.26.72c.384.264.696.552.936.864.264.288.396.624.396 1.008Zm7.04-12.636c0 .216-.108.684-.324 1.404-.216.72-.456 1.524-.72 2.412-.24.864-.468 1.716-.684 2.556-.192.84-.288 1.5-.288 1.98 0 .504.024.924.072 1.26.048.312.096.576.144.792.072.216.132.408.18.576.048.144.072.324.072.54 0 .48-.216.72-.648.72-.072 0-.144-.048-.216-.144-.528-.768-.852-1.524-.972-2.268-.096-.744-.144-1.32-.144-1.728 0-.504.072-1.152.216-1.944a40.93 40.93 0 0 1 .54-2.556c.216-.912.456-1.812.72-2.7.288-.912.564-1.704.828-2.376a1.18 1.18 0 0 1 .18-.144.512.512 0 0 1 .288-.072c.168 0 .3.072.396.216.096.12.168.276.216.468.048.168.084.348.108.54.024.192.036.348.036.468Zm1.188 16.164c0 .264-.084.54-.252.828-.144.264-.336.396-.576.396-.312 0-.612-.156-.9-.468a1.623 1.623 0 0 1-.396-1.08c0-.144.024-.324.072-.54.072-.24.228-.36.468-.36.096 0 .228.012.396.036.168.024.336.084.504.18a.991.991 0 0 1 .468.36c.144.168.216.384.216.648Z" fill="#7D4DD3"/></svg>