<svg width="543" height="414" viewBox="0 0 543 414" fill="none" xmlns="http://www.w3.org/2000/svg">
<path d="M123.201 193.465L199.662 213.953C205.968 215.642 210.939 215.382 222.186 208.627C233.312 201.945 271.251 179.447 289.378 169.834C292.408 168.618 299.907 167.786 305.655 174.196C311.402 180.604 334.921 221.931 345.962 241.794C348.044 246.138 355.236 255.638 367.348 258.884C379.461 262.129 414.789 271.596 430.94 275.923" stroke="#9293AB" stroke-width="1.72199" stroke-linecap="round"/>
<path d="M164.177 40.5419L240.638 61.0297C246.943 62.7192 251.12 65.4296 257.482 76.9026C263.775 88.2533 285.383 126.707 296.275 144.095C298.292 146.664 304.369 151.132 312.551 148.456C320.733 145.78 361.765 121.75 381.258 110.068C385.233 107.347 396.211 102.715 408.323 105.961C420.436 109.206 455.765 118.673 471.915 123" stroke="#9293AB" stroke-width="1.72199" stroke-linecap="round"/>
<path d="M214.322 168.297C217.023 169.021 219.8 167.418 220.523 164.717C221.247 162.016 219.644 159.24 216.943 158.516C214.242 157.792 211.466 159.395 210.742 162.096C210.019 164.797 211.621 167.573 214.322 168.297Z" fill="#FEE89D" stroke="#9293AB" stroke-width="1.72199"/>
<path d="M227.644 157.706C230.345 158.43 233.121 156.827 233.845 154.126C234.568 151.425 232.966 148.648 230.265 147.925C227.564 147.201 224.787 148.804 224.064 151.505C223.34 154.206 224.943 156.982 227.644 157.706Z" fill="#A3E9FF" stroke="#9293AB" stroke-width="1.72199"/>
<path d="M234.4 132.49C237.101 133.214 239.877 131.611 240.601 128.91C241.325 126.209 239.722 123.433 237.021 122.709C234.32 121.986 231.543 123.588 230.82 126.289C230.096 128.99 231.699 131.767 234.4 132.49Z" fill="#A3E9FF" stroke="#9293AB" stroke-width="1.72199"/>
<path d="M228.501 118.045C231.202 118.768 233.979 117.166 234.702 114.465C235.426 111.764 233.823 108.987 231.122 108.264C228.421 107.54 225.645 109.143 224.921 111.844C224.198 114.545 225.8 117.321 228.501 118.045Z" fill="#D6BFFF" stroke="#9293AB" stroke-width="1.72199"/>
<path d="M223.524 143.737C226.225 144.461 229.001 142.858 229.725 140.157C230.448 137.456 228.845 134.68 226.144 133.956C223.443 133.232 220.667 134.835 219.943 137.536C219.22 140.237 220.823 143.013 223.524 143.737Z" fill="#A3E9FF" stroke="#9293AB" stroke-width="1.72199"/>
<path d="M284.681 160.026C287.382 160.749 290.158 159.146 290.882 156.445C291.605 153.744 290.002 150.968 287.301 150.244C284.6 149.521 281.824 151.124 281.1 153.825C280.377 156.526 281.98 159.302 284.681 160.026Z" fill="#A3E9FF" stroke="#9293AB" stroke-width="1.72199"/>
<path d="M346.089 177.68C348.79 178.403 351.566 176.8 352.29 174.099C353.014 171.399 351.411 168.622 348.71 167.898C346.009 167.175 343.233 168.778 342.509 171.479C341.785 174.18 343.388 176.956 346.089 177.68Z" fill="#A3E9FF" stroke="#9293AB" stroke-width="1.72199"/>
<path d="M228.566 186.274C231.267 186.998 234.043 185.395 234.767 182.694C235.49 179.993 233.887 177.217 231.186 176.493C228.485 175.769 225.709 177.372 224.985 180.073C224.262 182.774 225.865 185.55 228.566 186.274Z" fill="#C5E1A5" stroke="#9293AB" stroke-width="1.72199"/>
<path d="M214.339 182.463C217.04 183.186 219.816 181.583 220.54 178.882C221.263 176.181 219.66 173.405 216.959 172.681C214.258 171.958 211.482 173.561 210.758 176.262C210.035 178.962 211.638 181.739 214.339 182.463Z" fill="#A3E9FF" stroke="#9293AB" stroke-width="1.72199"/>
<path d="M210.798 195.675C213.499 196.399 216.276 194.796 216.999 192.095C217.723 189.394 216.12 186.618 213.419 185.894C210.718 185.17 207.942 186.773 207.218 189.474C206.494 192.175 208.097 194.951 210.798 195.675Z" fill="#A3E9FF" stroke="#9293AB" stroke-width="1.72199"/>
<path d="M213.807 209.346C216.508 210.069 219.284 208.466 220.008 205.765C220.732 203.064 219.129 200.288 216.428 199.564C213.727 198.841 210.951 200.444 210.227 203.145C209.503 205.846 211.106 208.622 213.807 209.346Z" fill="#A3E9FF" stroke="#9293AB" stroke-width="1.72199"/>
<path d="M226.805 199.962C229.506 200.686 232.282 199.083 233.006 196.382C233.729 193.681 232.126 190.905 229.425 190.181C226.724 189.457 223.948 191.06 223.224 193.761C222.501 196.462 224.104 199.238 226.805 199.962Z" fill="#A3E9FF" stroke="#9293AB" stroke-width="1.72199"/>
<path d="M244.127 190.443C246.828 191.167 249.604 189.564 250.328 186.863C251.051 184.162 249.449 181.386 246.748 180.662C244.047 179.938 241.27 181.541 240.547 184.242C239.823 186.943 241.426 189.72 244.127 190.443Z" fill="#A3E9FF" stroke="#9293AB" stroke-width="1.72199"/>
<path d="M243.665 176.16C246.366 176.884 249.143 175.281 249.866 172.58C250.59 169.879 248.987 167.102 246.286 166.379C243.585 165.655 240.809 167.258 240.085 169.959C239.361 172.66 240.964 175.436 243.665 176.16Z" fill="#A3E9FF" stroke="#9293AB" stroke-width="1.72199"/>
<path d="M256.987 165.569C259.688 166.292 262.464 164.69 263.188 161.989C263.911 159.288 262.308 156.511 259.607 155.788C256.906 155.064 254.13 156.667 253.406 159.368C252.683 162.069 254.286 164.845 256.987 165.569Z" fill="#D6BFFF" stroke="#9293AB" stroke-width="1.72199"/>
<path d="M263.744 140.353C266.445 141.076 269.221 139.474 269.945 136.773C270.668 134.072 269.065 131.295 266.364 130.572C263.663 129.848 260.887 131.451 260.163 134.152C259.44 136.853 261.043 139.629 263.744 140.353Z" fill="#A3E9FF" stroke="#9293AB" stroke-width="1.72199"/>
<path d="M257.845 125.907C260.546 126.631 263.322 125.028 264.046 122.327C264.77 119.626 263.167 116.85 260.466 116.126C257.765 115.402 254.989 117.005 254.265 119.706C253.541 122.407 255.144 125.183 257.845 125.907Z" fill="#D6BFFF" stroke="#9293AB" stroke-width="1.72199"/>
<path d="M246.098 108.398C248.799 109.122 251.575 107.519 252.299 104.818C253.023 102.117 251.42 99.3408 248.719 98.617C246.018 97.8933 243.241 99.4962 242.518 102.197C241.794 104.898 243.397 107.674 246.098 108.398Z" fill="#FFC195" stroke="#9293AB" stroke-width="1.72199"/>
<path d="M237.411 91.9096C240.112 92.6333 242.888 91.0304 243.612 88.3294C244.336 85.6284 242.733 82.8521 240.032 82.1284C237.331 81.4047 234.554 83.0076 233.831 85.7085C233.107 88.4095 234.71 91.1858 237.411 91.9096Z" fill="#A3E9FF" stroke="#9293AB" stroke-width="1.72199"/>
<path d="M252.867 151.6C255.568 152.324 258.345 150.721 259.068 148.02C259.792 145.319 258.189 142.542 255.488 141.819C252.787 141.095 250.011 142.698 249.287 145.399C248.563 148.1 250.166 150.876 252.867 151.6Z" fill="#A3E9FF" stroke="#9293AB" stroke-width="1.72199"/>
<path d="M314.023 167.888C316.724 168.612 319.501 167.009 320.224 164.308C320.948 161.607 319.345 158.831 316.644 158.107C313.943 157.384 311.167 158.986 310.443 161.687C309.72 164.388 311.322 167.165 314.023 167.888Z" fill="#A3E9FF" stroke="#9293AB" stroke-width="1.72199"/>
<path d="M375.432 185.543C378.133 186.266 380.909 184.663 381.633 181.962C382.357 179.261 380.754 176.485 378.053 175.761C375.352 175.038 372.575 176.641 371.852 179.342C371.128 182.043 372.731 184.819 375.432 185.543Z" fill="#C5E1A5" stroke="#9293AB" stroke-width="1.72199"/>
<path d="M228.994 172.228C231.695 172.951 234.471 171.349 235.195 168.648C235.919 165.947 234.316 163.17 231.615 162.447C228.914 161.723 226.137 163.326 225.414 166.027C224.69 168.728 226.293 171.504 228.994 172.228Z" fill="#A3E9FF" stroke="#9293AB" stroke-width="1.72199"/>
<path d="M242.315 161.637C245.016 162.36 247.792 160.757 248.516 158.056C249.24 155.355 247.637 152.579 244.936 151.855C242.235 151.132 239.459 152.735 238.735 155.436C238.011 158.137 239.614 160.913 242.315 161.637Z" fill="#FFC195" stroke="#9293AB" stroke-width="1.72199"/>
<path d="M249.072 136.421C251.773 137.145 254.549 135.542 255.273 132.841C255.997 130.14 254.394 127.364 251.693 126.64C248.992 125.916 246.216 127.519 245.492 130.22C244.768 132.921 246.371 135.698 249.072 136.421Z" fill="#A3E9FF" stroke="#9293AB" stroke-width="1.72199"/>
<path d="M243.174 121.976C245.875 122.699 248.651 121.096 249.375 118.395C250.099 115.694 248.496 112.918 245.795 112.194C243.094 111.471 240.318 113.074 239.594 115.775C238.87 118.476 240.473 121.252 243.174 121.976Z" fill="#A3E9FF" stroke="#9293AB" stroke-width="1.72199"/>
<path d="M231.425 104.467C234.126 105.19 236.903 103.588 237.626 100.887C238.35 98.1856 236.747 95.4093 234.046 94.6856C231.345 93.9619 228.569 95.5647 227.845 98.2657C227.121 100.967 228.724 103.743 231.425 104.467Z" fill="#FEE89D" stroke="#9293AB" stroke-width="1.72199"/>
<path d="M245.518 81.2168C248.219 81.9405 250.995 80.3376 251.719 77.6366C252.443 74.9356 250.84 72.1594 248.139 71.4356C245.438 70.7119 242.662 72.3148 241.938 75.0158C241.214 77.7168 242.817 80.4931 245.518 81.2168Z" fill="#A3E9FF" stroke="#9293AB" stroke-width="1.72199"/>
<path d="M238.196 147.668C240.897 148.391 243.674 146.789 244.397 144.088C245.121 141.387 243.518 138.61 240.817 137.887C238.116 137.163 235.34 138.766 234.616 141.467C233.892 144.168 235.495 146.944 238.196 147.668Z" fill="#A3E9FF" stroke="#9293AB" stroke-width="1.72199"/>
<path d="M299.352 163.956C302.053 164.68 304.829 163.077 305.553 160.376C306.277 157.675 304.674 154.899 301.973 154.175C299.272 153.451 296.496 155.054 295.772 157.755C295.048 160.456 296.651 163.233 299.352 163.956Z" fill="#FFC195" stroke="#9293AB" stroke-width="1.72199"/>
<path d="M360.76 181.611C363.461 182.335 366.238 180.732 366.961 178.031C367.685 175.33 366.082 172.554 363.381 171.83C360.68 171.106 357.904 172.709 357.18 175.41C356.457 178.111 358.059 180.887 360.76 181.611Z" fill="#A3E9FF" stroke="#9293AB" stroke-width="1.72199"/>
<path d="M258.337 180.091C261.038 180.814 263.814 179.211 264.538 176.51C265.261 173.809 263.658 171.033 260.957 170.309C258.256 169.586 255.48 171.189 254.756 173.89C254.033 176.591 255.636 179.367 258.337 180.091Z" fill="#A3E9FF" stroke="#9293AB" stroke-width="1.72199"/>
<path d="M258.337 180.091C261.038 180.814 263.814 179.211 264.538 176.51C265.261 173.809 263.658 171.033 260.957 170.309C258.256 169.586 255.48 171.189 254.756 173.89C254.033 176.591 255.636 179.367 258.337 180.091Z" fill="#A3E9FF" stroke="#9293AB" stroke-width="1.72199"/>
<path d="M271.658 169.499C274.359 170.223 277.135 168.62 277.859 165.919C278.583 163.218 276.98 160.441 274.279 159.718C271.578 158.994 268.801 160.597 268.078 163.298C267.354 165.999 268.957 168.775 271.658 169.499Z" fill="#A3E9FF" stroke="#9293AB" stroke-width="1.72199"/>
<path d="M278.415 144.283C281.116 145.007 283.892 143.404 284.616 140.703C285.34 138.002 283.737 135.226 281.036 134.502C278.335 133.779 275.559 135.381 274.835 138.082C274.111 140.783 275.714 143.56 278.415 144.283Z" fill="#A3E9FF" stroke="#9293AB" stroke-width="1.72199"/>
<path d="M272.517 129.838C275.218 130.562 277.994 128.959 278.718 126.258C279.441 123.557 277.838 120.781 275.137 120.057C272.436 119.334 269.66 120.936 268.936 123.637C268.213 126.338 269.816 129.115 272.517 129.838Z" fill="#C5E1A5" stroke="#9293AB" stroke-width="1.72199"/>
<path d="M260.769 112.33C263.47 113.053 266.247 111.45 266.97 108.749C267.694 106.048 266.091 103.272 263.39 102.548C260.689 101.825 257.913 103.428 257.189 106.129C256.465 108.83 258.068 111.606 260.769 112.33Z" fill="#A3E9FF" stroke="#9293AB" stroke-width="1.72199"/>
<path d="M252.082 95.841C254.783 96.5647 257.56 94.9618 258.283 92.2608C259.007 89.5599 257.404 86.7836 254.703 86.0598C252.002 85.3361 249.226 86.939 248.502 89.64C247.778 92.341 249.381 95.1173 252.082 95.841Z" fill="#A3E9FF" stroke="#9293AB" stroke-width="1.72199"/>
<path d="M267.539 155.53C270.24 156.254 273.016 154.651 273.74 151.95C274.464 149.249 272.861 146.473 270.16 145.749C267.459 145.025 264.682 146.628 263.959 149.329C263.235 152.03 264.838 154.806 267.539 155.53Z" fill="#FEE89D" stroke="#9293AB" stroke-width="1.72199"/>
<path d="M328.695 171.819C331.396 172.542 334.172 170.939 334.896 168.238C335.619 165.537 334.016 162.761 331.315 162.037C328.614 161.314 325.838 162.917 325.114 165.618C324.391 168.319 325.994 171.095 328.695 171.819Z" fill="#FEE89D" stroke="#9293AB" stroke-width="1.72199"/>
<path d="M390.103 189.473C392.804 190.196 395.58 188.594 396.304 185.893C397.028 183.192 395.425 180.415 392.724 179.692C390.023 178.968 387.247 180.571 386.523 183.272C385.799 185.973 387.402 188.749 390.103 189.473Z" fill="#A3E9FF" stroke="#9293AB" stroke-width="1.72199"/>
<path d="M365.772 225.875C373.001 221.914 376.84 234.009 387.486 246.506C401.334 268.502 383.138 259.977 376.84 268.502L387.486 337.356C383.653 334.607 372.565 325.426 362.485 303.199C352.86 281.972 338.936 285.99 335.376 289.841C320.59 311.84 284.82 345.726 296.649 321.967C311.436 292.268 311.498 281.7 309.855 268.502C308.541 257.942 301.357 272.5 309.855 228.51C312.725 221.492 323.106 229.557 321.048 225.875C313.916 213.111 313.301 202.371 324.801 196.596C336.302 190.821 355.914 198.782 365.772 207.857C376.688 217.906 356.735 230.824 365.772 225.875Z" fill="white"/>
<path d="M322.643 225.893C319.179 222.613 317.214 218.589 315.898 214.729C306.684 187.686 360.404 190.075 368.142 211.854C370.283 217.88 368.451 222.502 364.859 225.893" stroke="black" stroke-width="1.72199" stroke-linecap="round" stroke-linejoin="round"/>
<path d="M373.924 225.918H309.972C308.704 225.918 307.676 226.947 307.676 228.214V262.219V271.076C307.676 272.344 308.704 273.371 309.972 273.371H373.924C375.192 273.371 376.22 272.344 376.22 271.076V228.214C376.22 226.947 375.192 225.918 373.924 225.918Z" fill="#B0B1C3"/>
<path d="M311.974 273.748C306.701 288.216 295.525 324.961 295.525 328.348C295.525 341.032 332.681 288.947 343.197 286.307C360.448 281.977 367.447 318.579 382.234 333.979C397.02 349.378 376.662 268.324 376.662 268.324" stroke="black" stroke-width="1.72199" stroke-linecap="round" stroke-linejoin="round"/>
<path d="M307.676 251.066V228.214C307.676 226.947 308.704 225.918 309.972 225.918H373.924C375.192 225.918 376.22 226.947 376.22 228.214V271.077C376.22 272.344 375.192 273.373 373.924 273.373H309.972C308.704 273.373 307.676 272.344 307.676 271.077V262.219" stroke="black" stroke-width="1.72199"/>
<path d="M354.046 220.956C350.819 226.872 335.626 228.794 329.85 217.193" stroke="black" stroke-width="1.72199" stroke-linecap="round" stroke-linejoin="round"/>
<path fill-rule="evenodd" clip-rule="evenodd" d="M345.148 239.644V238.496C345.148 238.179 344.891 237.922 344.574 237.922H342.278C341.962 237.922 341.704 238.179 341.704 238.496V239.644V239.949C341.704 240.226 341.507 240.461 341.237 240.525C340.266 240.757 339.353 241.142 338.526 241.65C338.29 241.795 337.984 241.768 337.788 241.572L337.571 241.355L336.759 240.544C336.535 240.319 336.171 240.319 335.947 240.544L334.324 242.167C334.1 242.391 334.1 242.755 334.324 242.978L335.136 243.79L335.354 244.008C335.549 244.203 335.575 244.51 335.431 244.745C334.922 245.573 334.54 246.486 334.307 247.457C334.242 247.725 334.007 247.923 333.731 247.923H333.425H332.277C331.96 247.923 331.703 248.18 331.703 248.497V250.793C331.703 251.111 331.96 251.367 332.277 251.367H333.425H333.731C334.007 251.367 334.242 251.565 334.307 251.834C334.54 252.805 334.923 253.718 335.432 254.546C335.576 254.782 335.55 255.087 335.354 255.284L335.138 255.5L334.326 256.311C334.102 256.536 334.102 256.899 334.326 257.123L335.95 258.747C336.173 258.971 336.537 258.971 336.761 258.747L337.573 257.935L337.79 257.719C337.985 257.524 338.291 257.496 338.527 257.641C339.354 258.149 340.267 258.533 341.237 258.765C341.507 258.829 341.704 259.064 341.704 259.341V259.647V260.795C341.704 261.112 341.962 261.369 342.278 261.369H344.574C344.891 261.369 345.148 261.112 345.148 260.795V259.647V259.341C345.148 259.064 345.346 258.829 345.616 258.765C346.586 258.533 347.497 258.15 348.324 257.643C348.56 257.498 348.866 257.525 349.062 257.72L349.279 257.937L350.089 258.75C350.314 258.973 350.677 258.973 350.902 258.75L352.525 257.125C352.749 256.901 352.749 256.537 352.525 256.314L351.714 255.502L351.498 255.286C351.303 255.091 351.275 254.784 351.421 254.549C351.93 253.72 352.314 252.806 352.546 251.834C352.612 251.565 352.847 251.367 353.124 251.367H353.429H354.577C354.894 251.367 355.151 251.111 355.151 250.793V248.497C355.151 248.18 354.894 247.923 354.577 247.923H353.429H353.124C352.847 247.923 352.612 247.725 352.547 247.457C352.314 246.486 351.931 245.573 351.423 244.745C351.279 244.51 351.305 244.203 351.5 244.008L351.717 243.79L352.53 242.978C352.754 242.755 352.754 242.391 352.53 242.167L350.906 240.544C350.682 240.32 350.318 240.32 350.094 240.544L349.282 241.355L349.065 241.572C348.87 241.767 348.564 241.795 348.328 241.649C347.5 241.141 346.587 240.757 345.616 240.525C345.346 240.461 345.148 240.226 345.148 239.949V239.644ZM343.372 255.893C346.826 255.893 349.626 253.106 349.626 249.668C349.626 246.228 346.826 243.441 343.372 243.441C339.919 243.441 337.121 246.228 337.121 249.668C337.121 253.106 339.919 255.893 343.372 255.893Z" fill="#848598"/>
<path d="M344.287 238.495V239.643H346.009V238.495H344.287ZM342.278 238.782H344.574V237.06H342.278V238.782ZM342.565 239.643V238.495H340.843V239.643H342.565ZM342.565 239.949V239.643H340.843V239.949H342.565ZM338.977 242.384C339.728 241.921 340.556 241.573 341.438 241.362L341.037 239.688C339.975 239.942 338.979 240.361 338.074 240.916L338.977 242.384ZM336.962 241.963L337.179 242.18L338.397 240.964L338.18 240.747L336.962 241.963ZM336.15 241.152L336.962 241.963L338.18 240.747L337.368 239.934L336.15 241.152ZM334.934 242.775L336.557 241.152L335.339 239.934L333.715 241.558L334.934 242.775ZM335.745 243.181L334.934 242.37L333.715 243.587L334.527 244.399L335.745 243.181ZM335.962 243.4L335.745 243.181L334.527 244.399L334.744 244.616L335.962 243.4ZM335.145 247.656C335.355 246.776 335.703 245.947 336.164 245.196L334.697 244.295C334.143 245.198 333.724 246.195 333.47 247.256L335.145 247.656ZM333.425 248.784H333.73V247.062H333.425V248.784ZM332.277 248.784H333.425V247.062H332.277V248.784ZM332.564 250.793V248.497H330.842V250.793H332.564ZM333.425 250.506H332.277V252.228H333.425V250.506ZM333.73 250.506H333.425V252.228H333.73V250.506ZM336.165 254.095C335.704 253.343 335.355 252.515 335.145 251.634L333.47 252.034C333.724 253.096 334.143 254.093 334.698 254.997L336.165 254.095ZM335.746 256.108L335.963 255.892L334.745 254.674L334.529 254.891L335.746 256.108ZM334.935 256.921L335.746 256.108L334.529 254.891L333.718 255.703L334.935 256.921ZM336.558 258.137L334.935 256.514L333.718 257.732L335.341 259.356L336.558 258.137ZM336.964 257.326L336.153 258.137L337.37 259.356L338.182 258.544L336.964 257.326ZM337.181 257.11L336.964 257.326L338.182 258.544L338.398 258.327L337.181 257.11ZM341.438 257.927C340.556 257.716 339.729 257.368 338.978 256.907L338.077 258.374C338.98 258.93 339.977 259.349 341.037 259.602L341.438 257.927ZM342.565 259.647V259.341H340.843V259.647H342.565ZM342.565 260.795V259.647H340.843V260.795H342.565ZM344.574 260.508H342.278V262.23H344.574V260.508ZM344.287 259.647V260.795H346.009V259.647H344.287ZM344.287 259.341V259.647H346.009V259.341H344.287ZM347.874 256.909C347.123 257.369 346.295 257.717 345.415 257.927L345.815 259.602C346.876 259.349 347.871 258.931 348.775 258.376L347.874 256.909ZM349.887 257.328L349.67 257.111L348.452 258.329L348.669 258.546L349.887 257.328ZM350.699 258.14L349.887 257.328L348.669 258.546L349.481 259.358L350.699 258.14ZM351.916 256.517L350.292 258.14L351.511 259.358L353.134 257.733L351.916 256.517ZM351.104 256.11L351.916 256.922L353.134 255.705L352.322 254.893L351.104 256.11ZM350.889 255.894L351.104 256.11L352.322 254.893L352.106 254.677L350.889 255.894ZM351.709 251.634C351.498 252.516 351.15 253.346 350.687 254.098L352.155 254.999C352.71 254.094 353.13 253.097 353.384 252.034L351.709 251.634ZM353.429 250.506H353.123V252.228H353.429V250.506ZM354.577 250.506H353.429V252.228H354.577V250.506ZM354.29 248.497V250.793H356.012V248.497H354.29ZM353.429 248.784H354.577V247.062H353.429V248.784ZM353.123 248.784H353.429V247.062H353.123V248.784ZM350.69 245.195C351.151 245.947 351.499 246.775 351.709 247.656L353.384 247.256C353.13 246.195 352.711 245.198 352.157 244.294L350.69 245.195ZM351.109 243.181L350.892 243.398L352.11 244.616L352.327 244.399L351.109 243.181ZM351.92 242.37L351.109 243.181L352.327 244.399L353.138 243.588L351.92 242.37ZM350.297 241.152L351.92 242.775L353.138 241.558L351.515 239.935L350.297 241.152ZM349.891 241.963L350.703 241.152L349.485 239.935L348.674 240.747L349.891 241.963ZM349.674 242.18L349.891 241.963L348.674 240.747L348.457 240.964L349.674 242.18ZM345.415 241.362C346.296 241.573 347.125 241.921 347.877 242.384L348.778 240.915C347.875 240.361 346.877 239.942 345.815 239.687L345.415 241.362ZM344.287 239.643V239.949H346.009V239.643H344.287ZM348.764 249.668C348.764 252.627 346.354 255.032 343.372 255.032V256.754C347.297 256.754 350.486 253.585 350.486 249.668H348.764ZM343.372 244.302C346.354 244.302 348.764 246.708 348.764 249.668H350.486C350.486 245.75 347.297 242.58 343.372 242.58V244.302ZM337.981 249.668C337.981 246.708 340.392 244.302 343.372 244.302V242.58C339.447 242.58 336.259 245.75 336.259 249.668H337.981ZM343.372 255.032C340.392 255.032 337.981 252.627 337.981 249.668H336.259C336.259 253.585 339.447 256.754 343.372 256.754V255.032ZM348.457 240.964C348.561 240.859 348.697 240.866 348.778 240.915L347.877 242.384C348.429 242.722 349.179 242.676 349.674 242.18L348.457 240.964ZM351.515 239.935C350.955 239.374 350.046 239.374 349.485 239.935L350.703 241.152C350.591 241.264 350.41 241.264 350.297 241.152L351.515 239.935ZM353.138 243.588C353.699 243.026 353.699 242.118 353.138 241.558L351.92 242.775C351.809 242.664 351.809 242.482 351.92 242.37L353.138 243.588ZM352.157 244.294C352.206 244.375 352.214 244.512 352.11 244.616L350.892 243.398C350.396 243.894 350.35 244.643 350.69 245.195L352.157 244.294ZM353.123 247.062C353.27 247.062 353.362 247.164 353.384 247.256L351.709 247.656C351.859 248.287 352.422 248.784 353.123 248.784V247.062ZM356.012 248.497C356.012 247.705 355.369 247.062 354.577 247.062V248.784C354.418 248.784 354.29 248.655 354.29 248.497H356.012ZM354.577 252.228C355.369 252.228 356.012 251.586 356.012 250.793H354.29C354.29 250.634 354.418 250.506 354.577 250.506V252.228ZM353.384 252.034C353.362 252.127 353.27 252.228 353.123 252.228V250.506C352.422 250.506 351.859 251.003 351.709 251.634L353.384 252.034ZM353.134 257.733C353.694 257.173 353.694 256.265 353.134 255.705L351.916 256.922C351.804 256.81 351.804 256.629 351.916 256.517L353.134 257.733ZM348.775 258.376C348.693 258.426 348.557 258.434 348.452 258.329L349.67 257.111C349.174 256.615 348.426 256.569 347.874 256.909L348.775 258.376ZM344.574 262.23C345.366 262.23 346.009 261.587 346.009 260.795H344.287C344.287 260.637 344.416 260.508 344.574 260.508V262.23ZM338.398 258.327C338.294 258.431 338.158 258.424 338.077 258.374L338.978 256.907C338.425 256.568 337.676 256.614 337.181 257.11L338.398 258.327ZM335.341 259.356C335.901 259.916 336.809 259.916 337.37 259.356L336.153 258.137C336.264 258.026 336.447 258.026 336.558 258.137L335.341 259.356ZM333.718 255.703C333.156 256.263 333.156 257.172 333.718 257.732L334.935 256.514C335.047 256.627 335.047 256.808 334.935 256.921L333.718 255.703ZM334.698 254.997C334.648 254.915 334.641 254.778 334.745 254.674L335.963 255.892C336.458 255.396 336.505 254.648 336.165 254.095L334.698 254.997ZM330.842 250.793C330.842 251.586 331.485 252.228 332.277 252.228V250.506C332.435 250.506 332.564 250.634 332.564 250.793H330.842ZM334.744 244.616C334.64 244.512 334.646 244.375 334.697 244.295L336.164 245.196C336.504 244.643 336.458 243.894 335.962 243.4L334.744 244.616ZM349.481 259.358C350.041 259.918 350.95 259.918 351.511 259.358L350.292 258.14C350.405 258.028 350.586 258.028 350.699 258.14L349.481 259.358ZM333.715 241.558C333.155 242.118 333.155 243.026 333.715 243.587L334.934 242.37C335.045 242.482 335.045 242.664 334.934 242.775L333.715 241.558ZM340.843 239.949C340.843 239.801 340.944 239.71 341.037 239.688L341.438 241.362C342.068 241.211 342.565 240.65 342.565 239.949H340.843ZM337.368 239.934C336.808 239.374 335.899 239.374 335.339 239.934L336.557 241.152C336.444 241.264 336.263 241.264 336.15 241.152L337.368 239.934ZM332.277 247.062C331.485 247.062 330.842 247.705 330.842 248.497H332.564C332.564 248.655 332.435 248.784 332.277 248.784V247.062ZM340.843 260.795C340.843 261.587 341.486 262.23 342.278 262.23V260.508C342.437 260.508 342.565 260.637 342.565 260.795H340.843ZM342.278 237.06C341.486 237.06 340.843 237.703 340.843 238.495H342.565C342.565 238.654 342.437 238.782 342.278 238.782V237.06ZM333.73 252.228C333.583 252.228 333.492 252.127 333.47 252.034L335.145 251.634C334.993 251.003 334.432 250.506 333.73 250.506V252.228ZM346.009 259.341C346.009 259.489 345.908 259.579 345.815 259.602L345.415 257.927C344.784 258.078 344.287 258.64 344.287 259.341H346.009ZM338.074 240.916C338.156 240.866 338.293 240.859 338.397 240.964L337.179 242.18C337.675 242.676 338.423 242.722 338.977 242.384L338.074 240.916ZM352.106 254.677C352.211 254.782 352.204 254.919 352.155 254.999L350.687 254.098C350.348 254.65 350.393 255.4 350.889 255.894L352.106 254.677ZM333.47 247.256C333.492 247.164 333.582 247.062 333.73 247.062V248.784C334.432 248.784 334.993 248.287 335.145 247.656L333.47 247.256ZM341.037 259.602C340.944 259.579 340.843 259.489 340.843 259.341H342.565C342.565 258.639 342.068 258.078 341.438 257.927L341.037 259.602ZM345.815 239.687C345.908 239.71 346.009 239.801 346.009 239.949H344.287C344.287 240.65 344.784 241.211 345.415 241.362L345.815 239.687ZM346.009 238.495C346.009 237.703 345.366 237.06 344.574 237.06V238.782C344.416 238.782 344.287 238.654 344.287 238.495H346.009Z" fill="black"/>
<path d="M250.092 203.437C279.79 207.956 278.03 237.888 271.73 243.31C281.629 247.528 295.058 256.331 300.817 261.392C308.018 267.719 287.35 275.805 281.95 275.805C276.551 275.805 296.031 363.595 292.432 363.595C288.832 363.595 260.119 317.362 250.092 318.213C227.966 320.093 209.763 378.406 207.526 365.953C201.499 332.409 224.895 273.93 224.895 273.93C224.895 273.93 200.859 263.329 201.76 252.483C202.66 241.637 231.194 243.201 224.895 236.875C211.073 222.994 220.395 198.917 250.092 203.437Z" fill="white"/>
<path d="M239.293 247.72C245.376 249.84 263.592 251.335 268.991 245.912C277.728 239.332 280.262 225.524 272.05 213.979C261.541 199.205 235.206 197.262 222.996 210.751C209.88 225.238 226.267 243.178 239.293 247.72Z" stroke="black" stroke-width="1.72199" stroke-linecap="round" stroke-linejoin="round"/>
<path d="M273.096 243.302C282.792 245.399 316.517 268.722 290.074 274.495C276.774 277.399 273.042 277.115 259.415 277.115" stroke="black" stroke-width="1.72199" stroke-linecap="round" stroke-linejoin="round"/>
<path d="M247.621 278.95C237.602 278.95 228.257 278.03 219.364 272.747C213.143 269.052 201.122 260.928 202.338 252.181C203.39 244.609 215.817 241.68 226.694 240.268" stroke="black" stroke-width="1.72199" stroke-linecap="round" stroke-linejoin="round"/>
<path d="M229.542 254.055C227.708 260.081 243.899 271.309 259.154 273.185C264.741 273.871 258.786 278.95 246.575 278.95" stroke="black" stroke-width="1.72199" stroke-linecap="round" stroke-linejoin="round"/>
<path d="M275.924 258.51C275.924 263.75 262.811 274.358 245.001 268.992" stroke="black" stroke-width="1.72199" stroke-linecap="round" stroke-linejoin="round"/>
<path d="M262.996 229.046C253.688 237.781 233.759 239.045 230.85 221.514" stroke="black" stroke-width="1.72199" stroke-linecap="round" stroke-linejoin="round"/>
<path d="M281.592 276.714C286.091 305.633 292.307 335.907 292.307 366.031C286.036 348.61 261.021 319.545 250.995 318.285C229.396 315.575 206.054 380.967 206.898 366.031C209.598 318.285 221.297 291.173 224.896 276.714" stroke="black" stroke-width="1.72199" stroke-linecap="round" stroke-linejoin="round"/>
<path d="M102.127 247.278C105.758 230.942 138.628 229.329 141.452 229.732L171.72 228.32C175.015 222.673 184.79 214.726 183.015 197.463C180.796 175.883 165.11 131.755 178.981 151.804C211.084 198.201 198.332 231.144 194.701 247.278C191.071 263.413 187.855 354.37 178.981 352.555C170.107 350.74 172.931 294.269 162.443 294.471C151.956 294.672 116.863 355.782 107.183 348.118C99.4382 341.987 136.182 295.026 141.452 264.42C142.668 257.361 138.349 254.054 127.54 252.925C114.026 251.514 131.777 279.346 127.542 283.58C123.306 287.815 98.4967 263.613 102.127 247.278Z" fill="white" stroke="black" stroke-width="1.72199" stroke-linecap="round" stroke-linejoin="round"/>
<path d="M142.862 231.31C154.135 241.323 169.727 240.663 174.746 230.184C180.733 217.687 179.852 206.681 170.41 196.196C162.596 187.516 146.011 183.193 139.013 196.222C133.544 206.403 134.776 224.128 142.862 231.31Z" fill="white" stroke="black" stroke-width="1.72199" stroke-linecap="round" stroke-linejoin="round"/>
<path d="M167.662 210.356C163.443 227.682 147.712 227.682 142.266 217.396" stroke="black" stroke-width="1.72199" stroke-linecap="round" stroke-linejoin="round"/>
<path d="M309.473 251.053L320.536 252.482C322.829 252.778 324.622 254.801 323.747 256.941C320.243 265.522 306.32 269.945 304.679 255.371C304.381 252.721 306.828 250.712 309.473 251.053Z" fill="white"/>
<path d="M376.083 233.405C390.519 249.647 404.102 261.472 377.247 267.738M320.536 252.481L309.473 251.052C306.828 250.711 304.381 252.72 304.679 255.371C306.32 269.945 320.243 265.521 323.747 256.94C324.622 254.8 322.829 252.777 320.536 252.481Z" stroke="black" stroke-width="1.72199"/>
<path d="M132.388 204.124L142.158 201.177C143.347 200.818 144.607 201.471 144.999 202.65L145.657 204.623L155.657 200.533L154.59 198.504C153.949 197.286 154.516 195.782 155.802 195.291L166.68 191.131C167.87 190.676 169.202 191.276 169.65 192.469L171.426 197.206C171.877 198.409 171.254 199.747 170.043 200.177L164.862 202.01L159.477 203.915C158.347 204.315 157.1 203.778 156.612 202.683L155.657 200.533L145.657 204.623L146.295 206.535C146.696 207.739 146.046 209.039 144.843 209.44L135.43 212.579C134.281 212.961 133.03 212.386 132.576 211.263L130.923 207.184C130.414 205.932 131.093 204.514 132.388 204.124Z" fill="#DEF7FF"/>
<path d="M145.657 204.623L144.999 202.65C144.607 201.471 143.347 200.818 142.158 201.177L132.388 204.124C131.093 204.514 130.414 205.932 130.923 207.184L132.576 211.263C133.03 212.386 134.281 212.961 135.43 212.579L144.843 209.44C146.046 209.039 146.696 207.739 146.295 206.535L145.657 204.623ZM145.657 204.623L155.657 200.533M155.657 200.533L154.59 198.504C153.949 197.286 154.516 195.782 155.802 195.291L166.68 191.131C167.87 190.676 169.202 191.276 169.65 192.469L171.426 197.206C171.877 198.409 171.254 199.747 170.043 200.177L164.862 202.01L159.477 203.915C158.347 204.315 157.1 203.778 156.612 202.683L155.657 200.533Z" stroke="black" stroke-width="1.72199"/>
</svg>
