<svg width="40" height="41" viewBox="0 0 40 41" fill="none" xmlns="http://www.w3.org/2000/svg">
<g clip-path="url(#clip0_1186_178323)">
<mask id="mask0_1186_178323" style="mask-type:luminance" maskUnits="userSpaceOnUse" x="2" y="4" width="33" height="33">
<path d="M34.9199 4.5H2.99988V36.42H34.9199V4.5Z" fill="white"/>
</mask>
<g mask="url(#mask0_1186_178323)">
<path opacity="0.5" d="M4.93241 34.5498H3.93491C3.41802 34.5498 2.99976 34.9679 2.99976 35.4849C2.99976 36.0017 3.41802 36.42 3.93491 36.42H7.73787C8.25477 36.42 8.67304 36.0017 8.67304 35.4849C8.67304 34.9679 8.25477 34.5498 7.73787 34.5498H6.80273V32.6794H7.73787C8.25477 32.6794 8.67304 32.2611 8.67304 31.7443C8.67304 31.2273 8.25477 30.809 7.73787 30.809H6.80273V28.9388H7.73787C8.25477 28.9388 8.67304 28.5205 8.67304 28.0036C8.67304 27.4867 8.25477 27.0685 7.73787 27.0685H6.80273V25.1981H7.73787C8.25477 25.1981 8.67304 24.7799 8.67304 24.263C8.67304 23.7461 8.25477 23.3278 7.73787 23.3278H6.80273V21.4575H7.73787C8.25477 21.4575 8.67304 21.0392 8.67304 20.5224C8.67304 20.0054 8.25477 19.5873 7.73787 19.5873H6.80273V17.7169H7.73787C8.25477 17.7169 8.67304 17.2986 8.67304 16.7817C8.67304 16.2648 8.25477 15.8466 7.73787 15.8466H6.80273V13.9763H7.73787C8.25477 13.9763 8.67304 13.558 8.67304 13.0411C8.67304 12.5242 8.25477 12.106 7.73787 12.106H3.93491C3.41802 12.106 2.99976 12.5242 2.99976 13.0411C2.99976 13.558 3.41802 13.9763 3.93491 13.9763H4.93241V34.5498Z" fill="#FF479F"/>
<path opacity="0.5" d="M33.9842 4.5C33.4673 4.5 33.0491 4.91826 33.0491 5.43516V6.43265H12.4133V5.43516C12.4133 4.91826 11.995 4.5 11.4781 4.5C10.9612 4.5 10.543 4.91826 10.543 5.43516V9.30048C10.543 9.81737 10.9612 10.2356 11.4781 10.2356C11.995 10.2356 12.4133 9.81737 12.4133 9.30048V8.30298H14.2836V9.30048C14.2836 9.81737 14.7019 10.2356 15.2187 10.2356C15.7356 10.2356 16.1539 9.81737 16.1539 9.30048V8.30298H18.0242V9.30048C18.0242 9.81737 18.4425 10.2356 18.9594 10.2356C19.4763 10.2356 19.8946 9.81737 19.8946 9.30048V8.30298H21.7648V9.30048C21.7648 9.81737 22.1831 10.2356 22.7001 10.2356C23.2169 10.2356 23.6352 9.81737 23.6352 9.30048V8.30298H25.5054V9.30048C25.5054 9.81737 25.9237 10.2356 26.4407 10.2356C26.9575 10.2356 27.3758 9.81737 27.3758 9.30048V8.30298H29.2461V9.30048C29.2461 9.81737 29.6643 10.2356 30.1813 10.2356C30.6981 10.2356 31.1164 9.81737 31.1164 9.30048V8.30298H33.0491V9.30048C33.0491 9.81737 33.4673 10.2356 33.9842 10.2356C34.5012 10.2356 34.9194 9.81737 34.9194 9.30048V5.43516C34.9194 4.91826 34.5012 4.5 33.9842 4.5Z" fill="#FF479F"/>
<path d="M21.7655 12.106H23.6359V17.7169H21.7655V12.106Z" fill="#FF479F"/>
<path fill-rule="evenodd" clip-rule="evenodd" d="M25.5054 12.106H33.9842C34.5012 12.106 34.9194 12.5242 34.9194 13.0411V35.4849C34.9194 36.0017 34.5012 36.42 33.9842 36.42H11.4781C10.9612 36.42 10.543 36.0017 10.543 35.4849V13.0411C10.543 12.5242 10.9612 12.106 11.4781 12.106H19.8946V18.652C19.8946 19.169 20.3128 19.5873 20.8297 19.5873H24.5703C25.0871 19.5873 25.5054 19.169 25.5054 18.652V12.106ZM19.8809 29.7285C19.8459 29.6314 19.7911 29.5422 19.7199 29.4665L17.5572 26.9111L19.7199 24.3556C19.8388 24.1997 19.8924 24.0049 19.8696 23.8112C19.8468 23.6176 19.7493 23.4399 19.5973 23.315C19.4453 23.19 19.2504 23.1273 19.0528 23.1398C18.8553 23.1523 18.67 23.2391 18.5356 23.3822L15.961 26.4243C15.8454 26.561 15.7821 26.7332 15.7821 26.9111C15.7821 27.0889 15.8454 27.2611 15.961 27.3978L18.5356 30.4401C18.5985 30.5225 18.6779 30.5914 18.7687 30.6428C18.8596 30.6941 18.9601 30.7268 19.0641 30.7387C19.1682 30.7505 19.2736 30.7415 19.374 30.7119C19.4744 30.6824 19.5676 30.6331 19.648 30.567C19.7284 30.5009 19.7944 30.4193 19.8418 30.3274C19.8892 30.2354 19.9172 30.1348 19.9238 30.0319C19.9306 29.929 19.916 29.8257 19.8809 29.7285ZM22.4339 30.1936L24.4937 24.1093V24.1077C24.5272 24.0126 24.5413 23.9118 24.5351 23.8112C24.5288 23.7108 24.5023 23.6124 24.4571 23.5221C24.412 23.4316 24.3491 23.351 24.272 23.2848C24.195 23.2186 24.1053 23.168 24.0082 23.1362C23.9112 23.1045 23.8087 23.0918 23.7067 23.0994C23.6047 23.1069 23.5052 23.1343 23.414 23.1799C23.3229 23.2256 23.2418 23.2887 23.1755 23.3654C23.1093 23.4421 23.0593 23.5311 23.0282 23.627L20.9685 29.7114C20.9362 29.8062 20.9233 29.9065 20.9304 30.0062C20.9375 30.106 20.9645 30.2035 21.0099 30.2928C21.0552 30.3824 21.1182 30.4622 21.1949 30.5277C21.2716 30.5933 21.3608 30.6432 21.4572 30.6748C21.5359 30.7008 21.6182 30.7139 21.7012 30.7138C21.8634 30.7138 22.0214 30.6635 22.1529 30.5701C22.2844 30.4768 22.3827 30.3451 22.4339 30.1936ZM26.9287 30.4401L29.5033 27.3978C29.6189 27.2611 29.6822 27.0889 29.6822 26.9111C29.6822 26.7332 29.6189 26.561 29.5033 26.4243L26.9287 23.3822C26.8658 23.2997 26.7864 23.2307 26.6955 23.1793C26.6047 23.128 26.5041 23.0954 26.4001 23.0836C26.296 23.0716 26.1906 23.0808 26.0902 23.1102C25.9898 23.1397 25.8966 23.189 25.8163 23.2551C25.7358 23.3212 25.6698 23.4028 25.6225 23.4948C25.575 23.5867 25.5471 23.6873 25.5404 23.7902C25.5336 23.8931 25.5483 23.9964 25.5834 24.0936C25.6183 24.1908 25.6731 24.2799 25.7443 24.3556L27.907 26.9111L25.7443 29.4665C25.6731 29.5422 25.6183 29.6314 25.5834 29.7285C25.5483 29.8257 25.5336 29.929 25.5404 30.0319C25.5471 30.1348 25.575 30.2354 25.6225 30.3274C25.6698 30.4193 25.7358 30.5009 25.8163 30.567C25.8966 30.6331 25.9898 30.6824 26.0902 30.7119C26.1906 30.7415 26.296 30.7505 26.4001 30.7387C26.5041 30.7268 26.6047 30.6941 26.6955 30.6428C26.7864 30.5914 26.8658 30.5225 26.9287 30.4401Z" fill="#FF479F"/>
</g>
</g>
<defs>
<clipPath id="clip0_1186_178323">
<rect width="33.25" height="31.92" fill="white" transform="translate(2.99988 4.5)"/>
</clipPath>
</defs>
</svg>
